<svg width="101" height="100" viewBox="0 0 101 100" fill="none" xmlns="http://www.w3.org/2000/svg">
<g clip-path="url(#clip0_209_922)">
<path d="M25.9668 79.1667C25.9668 81.3768 26.8448 83.4965 28.4076 85.0593C29.9704 86.6221 32.09 87.5 34.3001 87.5C36.5103 87.5 38.6299 86.6221 40.1927 85.0593C41.7555 83.4965 42.6335 81.3768 42.6335 79.1667C42.6335 76.9566 41.7555 74.837 40.1927 73.2742C38.6299 71.7113 36.5103 70.8334 34.3001 70.8334C32.09 70.8334 29.9704 71.7113 28.4076 73.2742C26.8448 74.837 25.9668 76.9566 25.9668 79.1667Z" stroke="black" stroke-width="2.75" stroke-linecap="round" stroke-linejoin="round"/>
<path d="M67.6333 79.1667C67.6333 81.3768 68.5113 83.4965 70.0741 85.0593C71.6369 86.6221 73.7565 87.5 75.9666 87.5C78.1768 87.5 80.2964 86.6221 81.8592 85.0593C83.422 83.4965 84.3 81.3768 84.3 79.1667C84.3 76.9566 83.422 74.837 81.8592 73.2742C80.2964 71.7113 78.1768 70.8334 75.9666 70.8334C73.7565 70.8334 71.6369 71.7113 70.0741 73.2742C68.5113 74.837 67.6333 76.9566 67.6333 79.1667Z" stroke="black" stroke-width="2.75" stroke-linecap="round" stroke-linejoin="round"/>
<path d="M9.30029 20.8333H19.717L26.517 41.2375C28.1762 46.2162 31.36 50.5465 35.6175 53.6149C39.8749 56.6832 44.9899 58.334 50.2378 58.3333H61.3836C67.4615 58.3333 73.2904 55.9189 77.5882 51.6212C81.8859 47.3235 84.3003 41.4945 84.3003 35.4167C84.3003 29.3388 81.8859 23.5098 77.5882 19.2121C73.2904 14.9144 67.4615 12.5 61.3836 12.5H59.3003V37.5" stroke="black" stroke-width="2.75" stroke-linecap="round" stroke-linejoin="round"/>
<path d="M25.9668 37.5H84.3001" stroke="black" stroke-width="2.75" stroke-linecap="round" stroke-linejoin="round"/>
<path d="M38.4668 70.8334L42.6335 58.3334" stroke="black" stroke-width="2.75" stroke-linecap="round" stroke-linejoin="round"/>
<path d="M67.6333 58.3334L71.8 70.8334" stroke="black" stroke-width="2.75" stroke-linecap="round" stroke-linejoin="round"/>
</g>
<defs>
<clipPath id="clip0_209_922">
<rect width="100" height="100" fill="white" transform="translate(0.966797)"/>
</clipPath>
</defs>
</svg>
