<svg width="100" height="101" viewBox="0 0 100 101" fill="none" xmlns="http://www.w3.org/2000/svg">
<g clip-path="url(#clip0_209_945)">
<path d="M41.6665 21.1542H58.3332V12.8208C58.3332 11.7158 57.8942 10.656 57.1128 9.87456C56.3314 9.09316 55.2716 8.65417 54.1665 8.65417H45.8332C44.7281 8.65417 43.6683 9.09316 42.8869 9.87456C42.1055 10.656 41.6665 11.7158 41.6665 12.8208V21.1542Z" stroke="black" stroke-width="2.75" stroke-linecap="round" stroke-linejoin="round"/>
<path d="M58.3332 14.9042C58.3332 21.6792 60.4457 28.2875 64.3748 33.8083L64.5832 34.1C68.649 39.8113 70.8336 46.6477 70.8332 53.6583V79.4875C70.8332 81.6977 69.9552 83.8173 68.3924 85.3801C66.8296 86.9429 64.71 87.8208 62.4998 87.8208H37.4998C35.2897 87.8208 33.1701 86.9429 31.6073 85.3801C30.0445 83.8173 29.1665 81.6977 29.1665 79.4875V53.6542C29.1665 46.6458 31.3498 39.8125 35.4165 34.1L35.6248 33.8083C39.5547 28.2881 41.6665 21.6804 41.6665 14.9042" stroke="black" stroke-width="2.75" stroke-linecap="round" stroke-linejoin="round"/>
<path d="M29.1665 61.9999C30.8332 61.2833 32.2735 60.1267 33.3332 58.6541C34.2797 57.3354 35.5331 56.2669 36.9849 55.541C38.4368 54.815 40.0436 54.4534 41.6665 54.4874C43.2894 54.4534 44.8962 54.815 46.3481 55.541C47.8 56.2669 49.0533 57.3354 49.9998 58.6541C50.9464 59.9728 52.1997 61.0413 53.6516 61.7672C55.1035 62.4932 56.7103 62.8548 58.3332 62.8208C59.9561 62.8548 61.5629 62.4932 63.0147 61.7672C64.4666 61.0413 65.72 59.9728 66.6665 58.6541C67.7251 57.1784 69.1655 56.0189 70.8332 55.2999" stroke="black" stroke-width="2.75" stroke-linecap="round" stroke-linejoin="round"/>
</g>
<defs>
<clipPath id="clip0_209_945">
<rect width="100" height="100" fill="white" transform="translate(0 0.320801)"/>
</clipPath>
</defs>
</svg>
