<svg width="100" height="101" viewBox="0 0 100 101" fill="none" xmlns="http://www.w3.org/2000/svg">
<g clip-path="url(#clip0_209_927)">
<path d="M20.8333 29.2386H25C27.2101 29.2386 29.3298 28.3607 30.8926 26.7979C32.4554 25.2351 33.3333 23.1155 33.3333 20.9053C33.3333 19.8002 33.7723 18.7404 34.5537 17.959C35.3351 17.1776 36.3949 16.7386 37.5 16.7386H62.5C63.6051 16.7386 64.6649 17.1776 65.4463 17.959C66.2277 18.7404 66.6667 19.8002 66.6667 20.9053C66.6667 23.1155 67.5446 25.2351 69.1074 26.7979C70.6702 28.3607 72.7899 29.2386 75 29.2386H79.1667C81.3768 29.2386 83.4964 30.1166 85.0592 31.6794C86.622 33.2422 87.5 35.3618 87.5 37.572V75.072C87.5 77.2821 86.622 79.4017 85.0592 80.9645C83.4964 82.5273 81.3768 83.4053 79.1667 83.4053H20.8333C18.6232 83.4053 16.5036 82.5273 14.9408 80.9645C13.378 79.4017 12.5 77.2821 12.5 75.072V37.572C12.5 35.3618 13.378 33.2422 14.9408 31.6794C16.5036 30.1166 18.6232 29.2386 20.8333 29.2386Z" stroke="black" stroke-width="2.75" stroke-linecap="round" stroke-linejoin="round"/>
<path d="M37.5 54.2386C37.5 57.5539 38.817 60.7333 41.1612 63.0775C43.5054 65.4217 46.6848 66.7386 50 66.7386C53.3152 66.7386 56.4946 65.4217 58.8388 63.0775C61.183 60.7333 62.5 57.5539 62.5 54.2386C62.5 50.9234 61.183 47.744 58.8388 45.3998C56.4946 43.0556 53.3152 41.7386 50 41.7386C46.6848 41.7386 43.5054 43.0556 41.1612 45.3998C38.817 47.744 37.5 50.9234 37.5 54.2386Z" stroke="black" stroke-width="2.75" stroke-linecap="round" stroke-linejoin="round"/>
</g>
<defs>
<clipPath id="clip0_209_927">
<rect width="100" height="100" fill="white" transform="translate(0 0.0720215)"/>
</clipPath>
</defs>
</svg>
