<svg width="100" height="101" viewBox="0 0 100 101" fill="none" xmlns="http://www.w3.org/2000/svg">
<g clip-path="url(#clip0_209_913)">
<path d="M58.3335 25.9279C58.3335 23.7178 57.4555 21.5982 55.8927 20.0354C54.3299 18.4726 52.2103 17.5946 50.0001 17.5946C47.79 17.5946 45.6704 18.4726 44.1076 20.0354C42.5448 21.5982 41.6668 23.7178 41.6668 25.9279C41.6668 32.8738 44.4585 38.4279 50.0001 42.5946H49.9668M49.9668 42.5946L83.1793 61.0446C84.479 61.7664 85.562 62.8228 86.3159 64.1042C87.0698 65.3856 87.4672 66.8454 87.4668 68.3321V71.7613C87.4668 73.9714 86.5888 76.091 85.026 77.6538C83.4632 79.2166 81.3436 80.0946 79.1335 80.0946H20.8001C18.59 80.0946 16.4704 79.2166 14.9076 77.6538C13.3448 76.091 12.4668 73.9714 12.4668 71.7613V68.3321C12.4664 66.8454 12.8638 65.3856 13.6177 64.1042C14.3716 62.8228 15.4545 61.7664 16.7543 61.0446L49.9668 42.5946Z" stroke="black" stroke-width="2.75" stroke-linecap="round" stroke-linejoin="round"/>
</g>
<defs>
<clipPath id="clip0_209_913">
<rect width="100" height="100" fill="white" transform="translate(0 0.927979)"/>
</clipPath>
</defs>
</svg>
