<svg width="100" height="101" viewBox="0 0 100 101" fill="none" xmlns="http://www.w3.org/2000/svg">
<g clip-path="url(#clip0_209_959)">
<path d="M25 42.1667C24.9964 37.6704 26.0325 33.2341 28.0272 29.2044C30.0219 25.1748 32.9212 21.6609 36.4987 18.9372C40.0762 16.2135 44.235 14.3538 48.6502 13.5034C53.0654 12.6529 57.6174 12.8348 61.9506 14.0348C66.2839 15.2348 70.281 17.4204 73.6298 20.4208C76.9786 23.4212 79.5883 27.1553 81.2552 31.3313C82.922 35.5072 83.6008 40.012 83.2385 44.4937C82.8762 48.9754 81.4826 53.3127 79.1667 57.1667C76.7977 60.3253 73.9919 63.1311 70.8333 65.5C67.1406 68.9783 64.2904 73.2535 62.5 78C61.207 80.4435 59.3897 82.5708 57.1783 84.2296C54.9668 85.8884 52.416 87.0377 49.7083 87.5951C47.0007 88.1526 44.2032 88.1044 41.5164 87.4541C38.8295 86.8038 36.3197 85.5673 34.1667 83.8334" stroke="black" stroke-width="2.75" stroke-linecap="round" stroke-linejoin="round"/>
<path d="M41.6669 42.1667C41.6419 40.0755 42.142 38.0114 43.1213 36.1636C44.1007 34.3157 45.5281 32.7431 47.2727 31.5898C49.0173 30.4365 51.0233 29.7393 53.1072 29.5621C55.191 29.385 57.286 29.7335 59.2002 30.5758C61.1145 31.418 62.7868 32.7271 64.0641 34.3832C65.3413 36.0392 66.1826 37.9892 66.511 40.0546C66.8393 42.1201 66.6442 44.2348 65.9435 46.2053C65.2428 48.1758 64.0589 49.939 62.5002 51.3334" stroke="black" stroke-width="2.75" stroke-linecap="round" stroke-linejoin="round"/>
</g>
<defs>
<clipPath id="clip0_209_959">
<rect width="100" height="100" fill="white" transform="translate(0 0.5)"/>
</clipPath>
</defs>
</svg>
