<svg width="101" height="101" viewBox="0 0 101 101" fill="none" xmlns="http://www.w3.org/2000/svg">
<path d="M85.125 7.16675H16.375C11.1992 7.16675 7 11.366 7 16.5417V85.2917C7 90.4675 11.1992 94.6667 16.375 94.6667H85.125C90.3008 94.6667 94.5 90.4675 94.5 85.2917V16.5417C94.5 11.366 90.3008 7.16675 85.125 7.16675ZM53.875 63.4167H44.5V72.7917C44.5 74.5105 43.0938 75.9167 41.375 75.9167H35.125C33.4062 75.9167 32 74.5105 32 72.7917V29.0417C32 27.323 33.4062 25.9167 35.125 25.9167H53.875C64.207 25.9167 72.625 34.3347 72.625 44.6667C72.625 54.9988 64.207 63.4167 53.875 63.4167ZM53.875 38.4167H44.5V50.9167H53.875C57.3125 50.9167 60.125 48.1042 60.125 44.6667C60.125 41.2292 57.3125 38.4167 53.875 38.4167Z" fill="black"/>
</svg>
