<svg width="100" height="100" viewBox="0 0 100 100" fill="none" xmlns="http://www.w3.org/2000/svg">
<g clip-path="url(#clip0_175_796)">
<path d="M62.5005 20.8334V29.1667" stroke="#2C3E50" stroke-width="2" stroke-linecap="round" stroke-linejoin="round"/>
<path d="M62.5005 45.8334V54.1667" stroke="#2C3E50" stroke-width="2" stroke-linecap="round" stroke-linejoin="round"/>
<path d="M62.5005 70.8334V79.1667" stroke="#2C3E50" stroke-width="2" stroke-linecap="round" stroke-linejoin="round"/>
<path d="M20.8338 20.8334H79.1672C81.3773 20.8334 83.4969 21.7113 85.0597 23.2742C86.6225 24.837 87.5005 26.9566 87.5005 29.1667V41.6667C85.2903 41.6667 83.1707 42.5447 81.6079 44.1075C80.0451 45.6703 79.1672 47.7899 79.1672 50C79.1672 52.2102 80.0451 54.3298 81.6079 55.8926C83.1707 57.4554 85.2903 58.3334 87.5005 58.3334V70.8334C87.5005 73.0435 86.6225 75.1631 85.0597 76.7259C83.4969 78.2887 81.3773 79.1667 79.1672 79.1667H20.8338C18.6237 79.1667 16.5041 78.2887 14.9413 76.7259C13.3785 75.1631 12.5005 73.0435 12.5005 70.8334V58.3334C14.7106 58.3334 16.8302 57.4554 18.393 55.8926C19.9558 54.3298 20.8338 52.2102 20.8338 50C20.8338 47.7899 19.9558 45.6703 18.393 44.1075C16.8302 42.5447 14.7106 41.6667 12.5005 41.6667V29.1667C12.5005 26.9566 13.3785 24.837 14.9413 23.2742C16.5041 21.7113 18.6237 20.8334 20.8338 20.8334Z" stroke="#2C3E50" stroke-width="2" stroke-linecap="round" stroke-linejoin="round"/>
</g>
<defs>
<clipPath id="clip0_175_796">
<rect width="100" height="100" fill="white" transform="translate(0.000488281)"/>
</clipPath>
</defs>
</svg>
