<svg width="100" height="100" viewBox="0 0 100 100" fill="none" xmlns="http://www.w3.org/2000/svg">
<g clip-path="url(#clip0_209_958)">
<path d="M12.5 66.6667C12.5 72.1921 14.6949 77.4911 18.6019 81.3981C22.509 85.3051 27.808 87.5 33.3333 87.5C38.8587 87.5 44.1577 85.3051 48.0647 81.3981C51.9717 77.4911 54.1667 72.1921 54.1667 66.6667C54.1667 61.1414 51.9717 55.8423 48.0647 51.9353C44.1577 48.0283 38.8587 45.8334 33.3333 45.8334C27.808 45.8334 22.509 48.0283 18.6019 51.9353C14.6949 55.8423 12.5 61.1414 12.5 66.6667Z" stroke="black" stroke-width="2.75" stroke-linecap="round" stroke-linejoin="round"/>
<path d="M70.8335 79.1667C70.8335 81.3768 71.7115 83.4965 73.2743 85.0593C74.8371 86.6221 76.9567 87.5 79.1668 87.5C81.377 87.5 83.4966 86.6221 85.0594 85.0593C86.6222 83.4965 87.5002 81.3768 87.5002 79.1667C87.5002 76.9566 86.6222 74.837 85.0594 73.2742C83.4966 71.7113 81.377 70.8334 79.1668 70.8334C76.9567 70.8334 74.8371 71.7113 73.2743 73.2742C71.7115 74.837 70.8335 76.9566 70.8335 79.1667Z" stroke="black" stroke-width="2.75" stroke-linecap="round" stroke-linejoin="round"/>
<path d="M79.1667 70.8334C79.1667 67.5182 77.8497 64.3387 75.5055 61.9945C73.1613 59.6503 69.9819 58.3334 66.6667 58.3334H52.5" stroke="black" stroke-width="2.75" stroke-linecap="round" stroke-linejoin="round"/>
<path d="M12.5 12.5H16.6667C18.8768 12.5 20.9964 13.378 22.5592 14.9408C24.122 16.5036 25 18.6232 25 20.8333V45.8333" stroke="black" stroke-width="2.75" stroke-linecap="round" stroke-linejoin="round"/>
<path d="M25 33.3334H70.8333" stroke="black" stroke-width="2.75" stroke-linecap="round" stroke-linejoin="round"/>
<path d="M62.5 33.3334V58.3334" stroke="black" stroke-width="2.75" stroke-linecap="round" stroke-linejoin="round"/>
</g>
<defs>
<clipPath id="clip0_209_958">
<rect width="100" height="100" fill="white"/>
</clipPath>
</defs>
</svg>
