<svg width="374" height="52" viewBox="0 0 374 52" fill="none" xmlns="http://www.w3.org/2000/svg">
<path d="M26.0098 51.3382C16.5381 51.3382 10.1779 47.0154 6.17031 41.5903C2.14752 36.1447 0.5 29.5905 0.5 25.199C0.5 20.8307 2.47331 14.5782 6.66597 9.45323C10.8446 4.34542 17.209 0.378017 26.0027 0.502869C43.6036 0.752763 49.0232 14.3196 50.0551 17.4339C54.7598 31.6322 72.7721 41.6647 91.5232 29.7092C102.85 22.4871 118.757 26.7435 125.663 38.1063C128.269 42.3948 130.912 45.9703 134.644 48.4626C136.515 49.7125 138.647 50.6817 141.166 51.3382H26.0098Z" stroke="#08192D"/>
<path d="M166.004 39.7109L173.844 21.8229H174.548L166.772 39.7109H166.004ZM168.564 34.0789L162.932 21.8229H163.604L169.076 33.6949L168.564 34.0789ZM183.657 34.1109C182.484 34.1109 181.417 33.8336 180.457 33.2789C179.518 32.7243 178.761 31.9776 178.185 31.0389C177.63 30.0789 177.353 29.0123 177.353 27.8389C177.353 26.6869 177.63 25.6309 178.185 24.6709C178.761 23.7109 179.518 22.9536 180.457 22.3989C181.417 21.8229 182.484 21.5349 183.657 21.5349C185.001 21.5349 186.132 21.9296 187.049 22.7189C187.988 23.4869 188.692 24.4576 189.161 25.6309L178.185 30.0789L177.993 29.5349L188.617 25.2469L188.457 25.5669C188.009 24.6283 187.369 23.8176 186.537 23.1349C185.726 22.4523 184.756 22.1109 183.625 22.1109C182.58 22.1109 181.63 22.3669 180.777 22.8789C179.924 23.3909 179.241 24.0843 178.729 24.9589C178.238 25.8336 177.993 26.7936 177.993 27.8389C177.993 28.8203 178.228 29.7483 178.697 30.6229C179.166 31.4976 179.817 32.2123 180.649 32.7669C181.502 33.3003 182.505 33.5669 183.657 33.5669C184.404 33.5669 185.108 33.4283 185.769 33.1509C186.452 32.8736 187.049 32.5003 187.561 32.0309L187.977 32.4789C187.401 32.9696 186.74 33.3643 185.993 33.6629C185.268 33.9616 184.489 34.1109 183.657 34.1109ZM198.595 34.1109C197.421 34.1109 196.355 33.8336 195.395 33.2789C194.456 32.7243 193.699 31.9776 193.123 31.0389C192.568 30.0789 192.291 29.0123 192.291 27.8389C192.291 26.6869 192.568 25.6309 193.123 24.6709C193.699 23.7109 194.456 22.9536 195.395 22.3989C196.355 21.8229 197.421 21.5349 198.595 21.5349C199.939 21.5349 201.069 21.9296 201.987 22.7189C202.925 23.4869 203.629 24.4576 204.099 25.6309L193.123 30.0789L192.931 29.5349L203.555 25.2469L203.395 25.5669C202.947 24.6283 202.307 23.8176 201.475 23.1349C200.664 22.4523 199.693 22.1109 198.562 22.1109C197.517 22.1109 196.568 22.3669 195.715 22.8789C194.861 23.3909 194.179 24.0843 193.667 24.9589C193.176 25.8336 192.931 26.7936 192.931 27.8389C192.931 28.8203 193.165 29.7483 193.635 30.6229C194.104 31.4976 194.755 32.2123 195.587 32.7669C196.44 33.3003 197.443 33.5669 198.595 33.5669C199.341 33.5669 200.045 33.4283 200.707 33.1509C201.389 32.8736 201.987 32.5003 202.499 32.0309L202.915 32.4789C202.339 32.9696 201.677 33.3643 200.931 33.6629C200.205 33.9616 199.427 34.1109 198.595 34.1109ZM210.972 34.1749C210.375 34.1749 209.713 34.0683 208.988 33.8549C208.284 33.6203 207.697 33.2149 207.228 32.6389L207.612 32.2549C207.932 32.6603 208.391 32.9909 208.988 33.2469C209.585 33.5029 210.247 33.6309 210.972 33.6309C211.484 33.6309 211.975 33.5456 212.444 33.3749C212.935 33.2043 213.34 32.9163 213.66 32.5109C213.98 32.0843 214.14 31.5189 214.14 30.8149C214.14 30.1749 213.969 29.6736 213.628 29.3109C213.287 28.9269 212.849 28.6389 212.316 28.4469C211.804 28.2336 211.26 28.0309 210.684 27.8389C209.895 27.5616 209.201 27.2096 208.604 26.7829C208.007 26.3563 207.708 25.6736 207.708 24.7349C207.708 24.0523 207.857 23.4869 208.156 23.0389C208.476 22.5909 208.892 22.2496 209.404 22.0149C209.916 21.7803 210.449 21.6629 211.004 21.6629C211.495 21.6629 212.049 21.7696 212.668 21.9829C213.287 22.1963 213.831 22.5589 214.3 23.0709L213.948 23.4869C213.585 23.0389 213.116 22.7189 212.54 22.5269C211.964 22.3349 211.463 22.2389 211.036 22.2389C210.652 22.2389 210.247 22.3243 209.82 22.4949C209.415 22.6443 209.063 22.9003 208.764 23.2629C208.465 23.6256 208.316 24.0949 208.316 24.6709C208.316 25.1829 208.444 25.6096 208.7 25.9509C208.956 26.2709 209.287 26.5376 209.692 26.7509C210.119 26.9429 210.567 27.1243 211.036 27.2949C211.612 27.5083 212.188 27.7323 212.764 27.9669C213.34 28.2016 213.809 28.5323 214.172 28.9589C214.556 29.3643 214.748 29.9296 214.748 30.6549C214.748 31.3589 214.599 31.9776 214.3 32.5109C214.023 33.0229 213.607 33.4283 213.052 33.7269C212.497 34.0256 211.804 34.1749 210.972 34.1749ZM219.508 21.8229H220.148V33.9189H219.508V21.8229ZM219.124 18.0149C219.124 17.8229 219.188 17.6629 219.316 17.5349C219.465 17.3856 219.647 17.3109 219.86 17.3109C220.052 17.3109 220.212 17.3856 220.34 17.5349C220.489 17.6629 220.564 17.8229 220.564 18.0149C220.564 18.2069 220.489 18.3776 220.34 18.5269C220.212 18.6549 220.052 18.7189 219.86 18.7189C219.647 18.7189 219.465 18.6549 219.316 18.5269C219.188 18.3776 219.124 18.2069 219.124 18.0149ZM231.124 34.1109C229.972 34.1109 228.927 33.8336 227.988 33.2789C227.05 32.7243 226.292 31.9776 225.716 31.0389C225.162 30.1003 224.884 29.0443 224.884 27.8709C224.884 26.5269 225.172 25.3856 225.748 24.4469C226.324 23.5083 227.082 22.7936 228.02 22.3029C228.98 21.8123 230.047 21.5669 231.22 21.5669C232.479 21.5669 233.62 21.9296 234.644 22.6549C235.69 23.3589 236.447 24.2763 236.916 25.4069L236.852 25.8229L237.012 21.8229H237.492V33.9189H236.884V29.7909L236.98 30.2389C236.767 30.7936 236.468 31.3056 236.084 31.7749C235.7 32.2443 235.252 32.6603 234.74 33.0229C234.228 33.3643 233.663 33.6309 233.044 33.8229C232.447 34.0149 231.807 34.1109 231.124 34.1109ZM231.188 33.5669C232.234 33.5669 233.183 33.3323 234.036 32.8629C234.89 32.3936 235.572 31.7536 236.084 30.9429C236.596 30.1109 236.863 29.1723 236.884 28.1269V26.8149C236.714 25.9403 236.351 25.1509 235.796 24.4469C235.263 23.7429 234.591 23.1776 233.78 22.7509C232.991 22.3243 232.127 22.1109 231.188 22.1109C230.143 22.1109 229.183 22.3456 228.308 22.8149C227.455 23.2843 226.772 23.9563 226.26 24.8309C225.77 25.6843 225.524 26.6869 225.524 27.8389C225.524 28.9056 225.78 29.8763 226.292 30.7509C226.804 31.6043 227.487 32.2869 228.34 32.7989C229.194 33.3109 230.143 33.5669 231.188 33.5669ZM228.788 14.2709H229.492L232.34 18.5269H231.732L228.788 14.2709ZM245.972 34.1749C245.375 34.1749 244.713 34.0683 243.988 33.8549C243.284 33.6203 242.697 33.2149 242.228 32.6389L242.612 32.2549C242.932 32.6603 243.391 32.9909 243.988 33.2469C244.585 33.5029 245.247 33.6309 245.972 33.6309C246.484 33.6309 246.975 33.5456 247.444 33.3749C247.935 33.2043 248.34 32.9163 248.66 32.5109C248.98 32.0843 249.14 31.5189 249.14 30.8149C249.14 30.1749 248.969 29.6736 248.628 29.3109C248.287 28.9269 247.849 28.6389 247.316 28.4469C246.804 28.2336 246.26 28.0309 245.684 27.8389C244.895 27.5616 244.201 27.2096 243.604 26.7829C243.007 26.3563 242.708 25.6736 242.708 24.7349C242.708 24.0523 242.857 23.4869 243.156 23.0389C243.476 22.5909 243.892 22.2496 244.404 22.0149C244.916 21.7803 245.449 21.6629 246.004 21.6629C246.495 21.6629 247.049 21.7696 247.668 21.9829C248.287 22.1963 248.831 22.5589 249.3 23.0709L248.948 23.4869C248.585 23.0389 248.116 22.7189 247.54 22.5269C246.964 22.3349 246.463 22.2389 246.036 22.2389C245.652 22.2389 245.247 22.3243 244.82 22.4949C244.415 22.6443 244.063 22.9003 243.764 23.2629C243.465 23.6256 243.316 24.0949 243.316 24.6709C243.316 25.1829 243.444 25.6096 243.7 25.9509C243.956 26.2709 244.287 26.5376 244.692 26.7509C245.119 26.9429 245.567 27.1243 246.036 27.2949C246.612 27.5083 247.188 27.7323 247.764 27.9669C248.34 28.2016 248.809 28.5323 249.172 28.9589C249.556 29.3643 249.748 29.9296 249.748 30.6549C249.748 31.3589 249.599 31.9776 249.3 32.5109C249.023 33.0229 248.607 33.4283 248.052 33.7269C247.497 34.0256 246.804 34.1749 245.972 34.1749ZM254.508 21.8229H255.148V33.9189H254.508V21.8229ZM254.124 18.0149C254.124 17.8229 254.188 17.6629 254.316 17.5349C254.465 17.3856 254.647 17.3109 254.86 17.3109C255.052 17.3109 255.212 17.3856 255.34 17.5349C255.489 17.6629 255.564 17.8229 255.564 18.0149C255.564 18.2069 255.489 18.3776 255.34 18.5269C255.212 18.6549 255.052 18.7189 254.86 18.7189C254.647 18.7189 254.465 18.6549 254.316 18.5269C254.188 18.3776 254.124 18.2069 254.124 18.0149ZM266.124 34.1109C264.972 34.1109 263.927 33.8336 262.988 33.2789C262.05 32.7243 261.292 31.9776 260.716 31.0389C260.162 30.1003 259.884 29.0443 259.884 27.8709C259.884 26.5269 260.172 25.3856 260.748 24.4469C261.324 23.5083 262.082 22.7936 263.02 22.3029C263.98 21.8123 265.047 21.5669 266.22 21.5669C267.479 21.5669 268.62 21.9296 269.644 22.6549C270.69 23.3589 271.447 24.2763 271.916 25.4069L271.852 25.8229L272.012 21.8229H272.492V33.9189H271.884V29.7909L271.98 30.2389C271.767 30.7936 271.468 31.3056 271.084 31.7749C270.7 32.2443 270.252 32.6603 269.74 33.0229C269.228 33.3643 268.663 33.6309 268.044 33.8229C267.447 34.0149 266.807 34.1109 266.124 34.1109ZM266.188 33.5669C267.234 33.5669 268.183 33.3323 269.036 32.8629C269.89 32.3936 270.572 31.7536 271.084 30.9429C271.596 30.1109 271.863 29.1723 271.884 28.1269V26.8149C271.714 25.9403 271.351 25.1509 270.796 24.4469C270.263 23.7429 269.591 23.1776 268.78 22.7509C267.991 22.3243 267.127 22.1109 266.188 22.1109C265.143 22.1109 264.183 22.3456 263.308 22.8149C262.455 23.2843 261.772 23.9563 261.26 24.8309C260.77 25.6843 260.524 26.6869 260.524 27.8389C260.524 28.9056 260.78 29.8763 261.292 30.7509C261.804 31.6043 262.487 32.2869 263.34 32.7989C264.194 33.3109 265.143 33.5669 266.188 33.5669ZM263.788 14.2709H264.492L267.34 18.5269H266.732L263.788 14.2709ZM293.189 39.7429C292.656 39.7429 292.101 39.6789 291.525 39.5509C290.97 39.4229 290.373 39.1776 289.733 38.8149C289.114 38.4736 288.453 37.9509 287.749 37.2469L288.101 36.8309C289.146 37.8549 290.085 38.4949 290.917 38.7509C291.749 39.0283 292.496 39.1669 293.157 39.1669C294.629 39.1669 295.77 38.9323 296.581 38.4629C297.392 38.0149 297.957 37.4069 298.277 36.6389C298.618 35.8923 298.81 35.0603 298.853 34.1429L298.885 29.7589L299.077 29.9509C298.629 31.1883 297.85 32.1909 296.741 32.9589C295.653 33.7269 294.437 34.1109 293.093 34.1109C291.941 34.1109 290.896 33.8336 289.957 33.2789C289.018 32.7243 288.261 31.9776 287.685 31.0389C287.13 30.0789 286.853 29.0123 286.853 27.8389C286.853 26.6016 287.141 25.5136 287.717 24.5749C288.293 23.6149 289.05 22.8789 289.989 22.3669C290.949 21.8336 292.005 21.5669 293.157 21.5669C294.437 21.5669 295.6 21.9296 296.645 22.6549C297.69 23.3589 298.448 24.2656 298.917 25.3749L298.821 25.7269L299.013 21.8229H299.493V34.1749C299.493 35.1136 299.312 35.9989 298.949 36.8309C298.586 37.6843 297.946 38.3776 297.029 38.9109C296.112 39.4656 294.832 39.7429 293.189 39.7429ZM287.493 27.8389C287.493 28.9056 287.738 29.8763 288.229 30.7509C288.741 31.6043 289.424 32.2869 290.277 32.7989C291.152 33.3109 292.112 33.5669 293.157 33.5669C294.202 33.5669 295.152 33.3216 296.005 32.8309C296.88 32.3189 297.573 31.6576 298.085 30.8469C298.597 30.0363 298.864 29.1616 298.885 28.2229V26.8469C298.714 25.9509 298.352 25.1509 297.797 24.4469C297.264 23.7216 296.592 23.1563 295.781 22.7509C294.992 22.3243 294.117 22.1109 293.157 22.1109C292.112 22.1109 291.152 22.3563 290.277 22.8469C289.424 23.3163 288.741 23.9883 288.229 24.8629C287.738 25.7163 287.493 26.7083 287.493 27.8389ZM310.468 34.1109C309.316 34.1109 308.271 33.8336 307.332 33.2789C306.393 32.7243 305.636 31.9776 305.06 31.0389C304.505 30.1003 304.228 29.0443 304.228 27.8709C304.228 26.5269 304.516 25.3856 305.092 24.4469C305.668 23.5083 306.425 22.7936 307.364 22.3029C308.324 21.8123 309.391 21.5669 310.564 21.5669C311.823 21.5669 312.964 21.9296 313.988 22.6549C315.033 23.3589 315.791 24.2763 316.26 25.4069L316.196 25.8229L316.356 21.8229H316.836V33.9189H316.228V29.7909L316.324 30.2389C316.111 30.7936 315.812 31.3056 315.428 31.7749C315.044 32.2443 314.596 32.6603 314.084 33.0229C313.572 33.3643 313.007 33.6309 312.388 33.8229C311.791 34.0149 311.151 34.1109 310.468 34.1109ZM310.532 33.5669C311.577 33.5669 312.527 33.3323 313.38 32.8629C314.233 32.3936 314.916 31.7536 315.428 30.9429C315.94 30.1109 316.207 29.1723 316.228 28.1269V26.8149C316.057 25.9403 315.695 25.1509 315.14 24.4469C314.607 23.7429 313.935 23.1776 313.124 22.7509C312.335 22.3243 311.471 22.1109 310.532 22.1109C309.487 22.1109 308.527 22.3456 307.652 22.8149C306.799 23.2843 306.116 23.9563 305.604 24.8309C305.113 25.6843 304.868 26.6869 304.868 27.8389C304.868 28.9056 305.124 29.8763 305.636 30.7509C306.148 31.6043 306.831 32.2869 307.684 32.7989C308.537 33.3109 309.487 33.5669 310.532 33.5669ZM322.852 9.85494H323.492V33.9189H322.852V9.85494ZM329.508 9.85494H330.148V33.9189H329.508V9.85494ZM341.188 34.1109C340.015 34.1109 338.948 33.8336 337.988 33.2789C337.05 32.7243 336.292 31.9776 335.716 31.0389C335.162 30.0789 334.884 29.0123 334.884 27.8389C334.884 26.6869 335.162 25.6309 335.716 24.6709C336.292 23.7109 337.05 22.9536 337.988 22.3989C338.948 21.8229 340.015 21.5349 341.188 21.5349C342.532 21.5349 343.663 21.9296 344.58 22.7189C345.519 23.4869 346.223 24.4576 346.692 25.6309L335.716 30.0789L335.524 29.5349L346.148 25.2469L345.988 25.5669C345.54 24.6283 344.9 23.8176 344.068 23.1349C343.258 22.4523 342.287 22.1109 341.156 22.1109C340.111 22.1109 339.162 22.3669 338.308 22.8789C337.455 23.3909 336.772 24.0843 336.26 24.9589C335.77 25.8336 335.524 26.7936 335.524 27.8389C335.524 28.8203 335.759 29.7483 336.228 30.6229C336.698 31.4976 337.348 32.2123 338.18 32.7669C339.034 33.3003 340.036 33.5669 341.188 33.5669C341.935 33.5669 342.639 33.4283 343.3 33.1509C343.983 32.8736 344.58 32.5003 345.092 32.0309L345.508 32.4789C344.932 32.9696 344.271 33.3643 343.524 33.6629C342.799 33.9616 342.02 34.1109 341.188 34.1109ZM351.582 21.8229L351.678 25.5989L351.614 25.2469C351.848 24.4789 352.232 23.8283 352.766 23.2949C353.32 22.7616 353.96 22.3563 354.686 22.0789C355.411 21.7803 356.168 21.6203 356.958 21.5989L356.926 22.1749C355.987 22.1963 355.123 22.4203 354.334 22.8469C353.544 23.2523 352.915 23.8069 352.446 24.5109C351.976 25.2149 351.742 26.0256 351.742 26.9429V33.9189H351.102V21.8229H351.582ZM362.535 39.7109L370.375 21.8229H371.079L363.303 39.7109H362.535ZM365.095 34.0789L359.463 21.8229H360.135L365.607 33.6949L365.095 34.0789Z" fill="#08192D"/>
</svg>
