<svg width="211" height="33" viewBox="0 0 211 33" fill="none" xmlns="http://www.w3.org/2000/svg">
<path d="M4.50375 30.7109L12.3438 12.8229H13.0478L5.27175 30.7109H4.50375ZM7.06375 25.0789L1.43175 12.8229H2.10375L7.57575 24.6949L7.06375 25.0789ZM22.157 25.1109C20.9837 25.1109 19.917 24.8336 18.957 24.2789C18.0183 23.7243 17.261 22.9776 16.685 22.0389C16.1303 21.0789 15.853 20.0123 15.853 18.8389C15.853 17.6869 16.1303 16.6309 16.685 15.6709C17.261 14.7109 18.0183 13.9536 18.957 13.3989C19.917 12.8229 20.9837 12.5349 22.157 12.5349C23.501 12.5349 24.6317 12.9296 25.549 13.7189C26.4877 14.4869 27.1917 15.4576 27.661 16.6309L16.685 21.0789L16.493 20.5349L27.117 16.2469L26.957 16.5669C26.509 15.6283 25.869 14.8176 25.037 14.1349C24.2263 13.4523 23.2557 13.1109 22.125 13.1109C21.0797 13.1109 20.1303 13.3669 19.277 13.8789C18.4237 14.3909 17.741 15.0843 17.229 15.9589C16.7383 16.8336 16.493 17.7936 16.493 18.8389C16.493 19.8203 16.7277 20.7483 17.197 21.6229C17.6663 22.4976 18.317 23.2123 19.149 23.7669C20.0023 24.3003 21.005 24.5669 22.157 24.5669C22.9037 24.5669 23.6077 24.4283 24.269 24.1509C24.9517 23.8736 25.549 23.5003 26.061 23.0309L26.477 23.4789C25.901 23.9696 25.2397 24.3643 24.493 24.6629C23.7677 24.9616 22.989 25.1109 22.157 25.1109ZM37.0945 25.1109C35.9212 25.1109 34.8545 24.8336 33.8945 24.2789C32.9558 23.7243 32.1985 22.9776 31.6225 22.0389C31.0678 21.0789 30.7905 20.0123 30.7905 18.8389C30.7905 17.6869 31.0678 16.6309 31.6225 15.6709C32.1985 14.7109 32.9558 13.9536 33.8945 13.3989C34.8545 12.8229 35.9212 12.5349 37.0945 12.5349C38.4385 12.5349 39.5692 12.9296 40.4865 13.7189C41.4252 14.4869 42.1292 15.4576 42.5985 16.6309L31.6225 21.0789L31.4305 20.5349L42.0545 16.2469L41.8945 16.5669C41.4465 15.6283 40.8065 14.8176 39.9745 14.1349C39.1638 13.4523 38.1932 13.1109 37.0625 13.1109C36.0172 13.1109 35.0678 13.3669 34.2145 13.8789C33.3612 14.3909 32.6785 15.0843 32.1665 15.9589C31.6758 16.8336 31.4305 17.7936 31.4305 18.8389C31.4305 19.8203 31.6652 20.7483 32.1345 21.6229C32.6038 22.4976 33.2545 23.2123 34.0865 23.7669C34.9398 24.3003 35.9425 24.5669 37.0945 24.5669C37.8412 24.5669 38.5452 24.4283 39.2065 24.1509C39.8892 23.8736 40.4865 23.5003 40.9985 23.0309L41.4145 23.4789C40.8385 23.9696 40.1772 24.3643 39.4305 24.6629C38.7052 24.9616 37.9265 25.1109 37.0945 25.1109ZM49.472 25.1749C48.8747 25.1749 48.2133 25.0683 47.488 24.8549C46.784 24.6203 46.1973 24.2149 45.728 23.6389L46.112 23.2549C46.432 23.6603 46.8907 23.9909 47.488 24.2469C48.0853 24.5029 48.7467 24.6309 49.472 24.6309C49.984 24.6309 50.4747 24.5456 50.944 24.3749C51.4347 24.2043 51.84 23.9163 52.16 23.5109C52.48 23.0843 52.64 22.5189 52.64 21.8149C52.64 21.1749 52.4693 20.6736 52.128 20.3109C51.7867 19.9269 51.3493 19.6389 50.816 19.4469C50.304 19.2336 49.76 19.0309 49.184 18.8389C48.3947 18.5616 47.7013 18.2096 47.104 17.7829C46.5067 17.3563 46.208 16.6736 46.208 15.7349C46.208 15.0523 46.3573 14.4869 46.656 14.0389C46.976 13.5909 47.392 13.2496 47.904 13.0149C48.416 12.7803 48.9493 12.6629 49.504 12.6629C49.9947 12.6629 50.5493 12.7696 51.168 12.9829C51.7867 13.1963 52.3307 13.5589 52.8 14.0709L52.448 14.4869C52.0853 14.0389 51.616 13.7189 51.04 13.5269C50.464 13.3349 49.9627 13.2389 49.536 13.2389C49.152 13.2389 48.7467 13.3243 48.32 13.4949C47.9147 13.6443 47.5627 13.9003 47.264 14.2629C46.9653 14.6256 46.816 15.0949 46.816 15.6709C46.816 16.1829 46.944 16.6096 47.2 16.9509C47.456 17.2709 47.7867 17.5376 48.192 17.7509C48.6187 17.9429 49.0667 18.1243 49.536 18.2949C50.112 18.5083 50.688 18.7323 51.264 18.9669C51.84 19.2016 52.3093 19.5323 52.672 19.9589C53.056 20.3643 53.248 20.9296 53.248 21.6549C53.248 22.3589 53.0987 22.9776 52.8 23.5109C52.5227 24.0229 52.1067 24.4283 51.552 24.7269C50.9973 25.0256 50.304 25.1749 49.472 25.1749ZM58.008 12.8229H58.648V24.9189H58.008V12.8229ZM57.624 9.01495C57.624 8.82294 57.688 8.66294 57.816 8.53494C57.9653 8.38561 58.1467 8.31094 58.36 8.31094C58.552 8.31094 58.712 8.38561 58.84 8.53494C58.9893 8.66294 59.064 8.82294 59.064 9.01495C59.064 9.20694 58.9893 9.37761 58.84 9.52694C58.712 9.65494 58.552 9.71894 58.36 9.71894C58.1467 9.71894 57.9653 9.65494 57.816 9.52694C57.688 9.37761 57.624 9.20694 57.624 9.01495ZM69.6243 25.1109C68.4723 25.1109 67.4269 24.8336 66.4883 24.2789C65.5496 23.7243 64.7923 22.9776 64.2163 22.0389C63.6616 21.1003 63.3843 20.0443 63.3843 18.8709C63.3843 17.5269 63.6723 16.3856 64.2483 15.4469C64.8243 14.5083 65.5816 13.7936 66.5203 13.3029C67.4803 12.8123 68.5469 12.5669 69.7203 12.5669C70.9789 12.5669 72.1203 12.9296 73.1443 13.6549C74.1896 14.3589 74.9469 15.2763 75.4163 16.4069L75.3523 16.8229L75.5123 12.8229H75.9923V24.9189H75.3843V20.7909L75.4803 21.2389C75.2669 21.7936 74.9683 22.3056 74.5843 22.7749C74.2003 23.2443 73.7523 23.6603 73.2403 24.0229C72.7283 24.3643 72.1629 24.6309 71.5443 24.8229C70.9469 25.0149 70.3069 25.1109 69.6243 25.1109ZM69.6883 24.5669C70.7336 24.5669 71.6829 24.3323 72.5363 23.8629C73.3896 23.3936 74.0723 22.7536 74.5843 21.9429C75.0963 21.1109 75.3629 20.1723 75.3843 19.1269V17.8149C75.2136 16.9403 74.8509 16.1509 74.2963 15.4469C73.7629 14.7429 73.0909 14.1776 72.2803 13.7509C71.4909 13.3243 70.6269 13.1109 69.6883 13.1109C68.6429 13.1109 67.6829 13.3456 66.8083 13.8149C65.9549 14.2843 65.2723 14.9563 64.7603 15.8309C64.2696 16.6843 64.0243 17.6869 64.0243 18.8389C64.0243 19.9056 64.2803 20.8763 64.7923 21.7509C65.3043 22.6043 65.9869 23.2869 66.8403 23.7989C67.6936 24.3109 68.6429 24.5669 69.6883 24.5669ZM67.2883 5.27094H67.9923L70.8403 9.52694H70.2323L67.2883 5.27094ZM84.472 25.1749C83.8747 25.1749 83.2133 25.0683 82.488 24.8549C81.784 24.6203 81.1973 24.2149 80.728 23.6389L81.112 23.2549C81.432 23.6603 81.8907 23.9909 82.488 24.2469C83.0853 24.5029 83.7467 24.6309 84.472 24.6309C84.984 24.6309 85.4747 24.5456 85.944 24.3749C86.4347 24.2043 86.84 23.9163 87.16 23.5109C87.48 23.0843 87.64 22.5189 87.64 21.8149C87.64 21.1749 87.4693 20.6736 87.128 20.3109C86.7867 19.9269 86.3493 19.6389 85.816 19.4469C85.304 19.2336 84.76 19.0309 84.184 18.8389C83.3947 18.5616 82.7013 18.2096 82.104 17.7829C81.5067 17.3563 81.208 16.6736 81.208 15.7349C81.208 15.0523 81.3573 14.4869 81.656 14.0389C81.976 13.5909 82.392 13.2496 82.904 13.0149C83.416 12.7803 83.9493 12.6629 84.504 12.6629C84.9947 12.6629 85.5493 12.7696 86.168 12.9829C86.7867 13.1963 87.3307 13.5589 87.8 14.0709L87.448 14.4869C87.0853 14.0389 86.616 13.7189 86.04 13.5269C85.464 13.3349 84.9627 13.2389 84.536 13.2389C84.152 13.2389 83.7467 13.3243 83.32 13.4949C82.9147 13.6443 82.5627 13.9003 82.264 14.2629C81.9653 14.6256 81.816 15.0949 81.816 15.6709C81.816 16.1829 81.944 16.6096 82.2 16.9509C82.456 17.2709 82.7867 17.5376 83.192 17.7509C83.6187 17.9429 84.0667 18.1243 84.536 18.2949C85.112 18.5083 85.688 18.7323 86.264 18.9669C86.84 19.2016 87.3093 19.5323 87.672 19.9589C88.056 20.3643 88.248 20.9296 88.248 21.6549C88.248 22.3589 88.0987 22.9776 87.8 23.5109C87.5227 24.0229 87.1067 24.4283 86.552 24.7269C85.9973 25.0256 85.304 25.1749 84.472 25.1749ZM93.008 12.8229H93.648V24.9189H93.008V12.8229ZM92.624 9.01495C92.624 8.82294 92.688 8.66294 92.816 8.53494C92.9653 8.38561 93.1467 8.31094 93.36 8.31094C93.552 8.31094 93.712 8.38561 93.84 8.53494C93.9893 8.66294 94.064 8.82294 94.064 9.01495C94.064 9.20694 93.9893 9.37761 93.84 9.52694C93.712 9.65494 93.552 9.71894 93.36 9.71894C93.1467 9.71894 92.9653 9.65494 92.816 9.52694C92.688 9.37761 92.624 9.20694 92.624 9.01495ZM104.624 25.1109C103.472 25.1109 102.427 24.8336 101.488 24.2789C100.55 23.7243 99.7923 22.9776 99.2163 22.0389C98.6616 21.1003 98.3843 20.0443 98.3843 18.8709C98.3843 17.5269 98.6723 16.3856 99.2483 15.4469C99.8243 14.5083 100.582 13.7936 101.52 13.3029C102.48 12.8123 103.547 12.5669 104.72 12.5669C105.979 12.5669 107.12 12.9296 108.144 13.6549C109.19 14.3589 109.947 15.2763 110.416 16.4069L110.352 16.8229L110.512 12.8229H110.992V24.9189H110.384V20.7909L110.48 21.2389C110.267 21.7936 109.968 22.3056 109.584 22.7749C109.2 23.2443 108.752 23.6603 108.24 24.0229C107.728 24.3643 107.163 24.6309 106.544 24.8229C105.947 25.0149 105.307 25.1109 104.624 25.1109ZM104.688 24.5669C105.734 24.5669 106.683 24.3323 107.536 23.8629C108.39 23.3936 109.072 22.7536 109.584 21.9429C110.096 21.1109 110.363 20.1723 110.384 19.1269V17.8149C110.214 16.9403 109.851 16.1509 109.296 15.4469C108.763 14.7429 108.091 14.1776 107.28 13.7509C106.491 13.3243 105.627 13.1109 104.688 13.1109C103.643 13.1109 102.683 13.3456 101.808 13.8149C100.955 14.2843 100.272 14.9563 99.7603 15.8309C99.2696 16.6843 99.0243 17.6869 99.0243 18.8389C99.0243 19.9056 99.2803 20.8763 99.7923 21.7509C100.304 22.6043 100.987 23.2869 101.84 23.7989C102.694 24.3109 103.643 24.5669 104.688 24.5669ZM102.288 5.27094H102.992L105.84 9.52694H105.232L102.288 5.27094ZM131.689 30.7429C131.156 30.7429 130.601 30.6789 130.025 30.5509C129.47 30.4229 128.873 30.1776 128.233 29.8149C127.614 29.4736 126.953 28.9509 126.249 28.2469L126.601 27.8309C127.646 28.8549 128.585 29.4949 129.417 29.7509C130.249 30.0283 130.996 30.1669 131.657 30.1669C133.129 30.1669 134.27 29.9323 135.081 29.4629C135.892 29.0149 136.457 28.4069 136.777 27.6389C137.118 26.8923 137.31 26.0603 137.353 25.1429L137.385 20.7589L137.577 20.9509C137.129 22.1883 136.35 23.1909 135.241 23.9589C134.153 24.7269 132.937 25.1109 131.593 25.1109C130.441 25.1109 129.396 24.8336 128.457 24.2789C127.518 23.7243 126.761 22.9776 126.185 22.0389C125.63 21.0789 125.353 20.0123 125.353 18.8389C125.353 17.6016 125.641 16.5136 126.217 15.5749C126.793 14.6149 127.55 13.8789 128.489 13.3669C129.449 12.8336 130.505 12.5669 131.657 12.5669C132.937 12.5669 134.1 12.9296 135.145 13.6549C136.19 14.3589 136.948 15.2656 137.417 16.3749L137.321 16.7269L137.513 12.8229H137.993V25.1749C137.993 26.1136 137.812 26.9989 137.449 27.8309C137.086 28.6843 136.446 29.3776 135.529 29.9109C134.612 30.4656 133.332 30.7429 131.689 30.7429ZM125.993 18.8389C125.993 19.9056 126.238 20.8763 126.729 21.7509C127.241 22.6043 127.924 23.2869 128.777 23.7989C129.652 24.3109 130.612 24.5669 131.657 24.5669C132.702 24.5669 133.652 24.3216 134.505 23.8309C135.38 23.3189 136.073 22.6576 136.585 21.8469C137.097 21.0363 137.364 20.1616 137.385 19.2229V17.8469C137.214 16.9509 136.852 16.1509 136.297 15.4469C135.764 14.7216 135.092 14.1563 134.281 13.7509C133.492 13.3243 132.617 13.1109 131.657 13.1109C130.612 13.1109 129.652 13.3563 128.777 13.8469C127.924 14.3163 127.241 14.9883 126.729 15.8629C126.238 16.7163 125.993 17.7083 125.993 18.8389ZM148.968 25.1109C147.816 25.1109 146.771 24.8336 145.832 24.2789C144.893 23.7243 144.136 22.9776 143.56 22.0389C143.005 21.1003 142.728 20.0443 142.728 18.8709C142.728 17.5269 143.016 16.3856 143.592 15.4469C144.168 14.5083 144.925 13.7936 145.864 13.3029C146.824 12.8123 147.891 12.5669 149.064 12.5669C150.323 12.5669 151.464 12.9296 152.488 13.6549C153.533 14.3589 154.291 15.2763 154.76 16.4069L154.696 16.8229L154.856 12.8229H155.336V24.9189H154.728V20.7909L154.824 21.2389C154.611 21.7936 154.312 22.3056 153.928 22.7749C153.544 23.2443 153.096 23.6603 152.584 24.0229C152.072 24.3643 151.507 24.6309 150.888 24.8229C150.291 25.0149 149.651 25.1109 148.968 25.1109ZM149.032 24.5669C150.077 24.5669 151.027 24.3323 151.88 23.8629C152.733 23.3936 153.416 22.7536 153.928 21.9429C154.44 21.1109 154.707 20.1723 154.728 19.1269V17.8149C154.557 16.9403 154.195 16.1509 153.64 15.4469C153.107 14.7429 152.435 14.1776 151.624 13.7509C150.835 13.3243 149.971 13.1109 149.032 13.1109C147.987 13.1109 147.027 13.3456 146.152 13.8149C145.299 14.2843 144.616 14.9563 144.104 15.8309C143.613 16.6843 143.368 17.6869 143.368 18.8389C143.368 19.9056 143.624 20.8763 144.136 21.7509C144.648 22.6043 145.331 23.2869 146.184 23.7989C147.037 24.3109 147.987 24.5669 149.032 24.5669ZM161.352 0.854944H161.992V24.9189H161.352V0.854944ZM168.008 0.854944H168.648V24.9189H168.008V0.854944ZM179.688 25.1109C178.515 25.1109 177.448 24.8336 176.488 24.2789C175.55 23.7243 174.792 22.9776 174.216 22.0389C173.662 21.0789 173.384 20.0123 173.384 18.8389C173.384 17.6869 173.662 16.6309 174.216 15.6709C174.792 14.7109 175.55 13.9536 176.488 13.3989C177.448 12.8229 178.515 12.5349 179.688 12.5349C181.032 12.5349 182.163 12.9296 183.08 13.7189C184.019 14.4869 184.723 15.4576 185.192 16.6309L174.216 21.0789L174.024 20.5349L184.648 16.2469L184.488 16.5669C184.04 15.6283 183.4 14.8176 182.568 14.1349C181.758 13.4523 180.787 13.1109 179.656 13.1109C178.611 13.1109 177.662 13.3669 176.808 13.8789C175.955 14.3909 175.272 15.0843 174.76 15.9589C174.27 16.8336 174.024 17.7936 174.024 18.8389C174.024 19.8203 174.259 20.7483 174.728 21.6229C175.198 22.4976 175.848 23.2123 176.68 23.7669C177.534 24.3003 178.536 24.5669 179.688 24.5669C180.435 24.5669 181.139 24.4283 181.8 24.1509C182.483 23.8736 183.08 23.5003 183.592 23.0309L184.008 23.4789C183.432 23.9696 182.771 24.3643 182.024 24.6629C181.299 24.9616 180.52 25.1109 179.688 25.1109ZM190.082 12.8229L190.178 16.5989L190.114 16.2469C190.348 15.4789 190.732 14.8283 191.266 14.2949C191.82 13.7616 192.46 13.3563 193.186 13.0789C193.911 12.7803 194.668 12.6203 195.458 12.5989L195.426 13.1749C194.487 13.1963 193.623 13.4203 192.834 13.8469C192.044 14.2523 191.415 14.8069 190.946 15.5109C190.476 16.2149 190.242 17.0256 190.242 17.9429V24.9189H189.602V12.8229H190.082ZM201.035 30.7109L208.875 12.8229H209.579L201.803 30.7109H201.035ZM203.595 25.0789L197.963 12.8229H198.635L204.107 24.6949L203.595 25.0789Z" fill="black"/>
</svg>
