<svg width="235" height="110" viewBox="0 0 235 110" fill="none" xmlns="http://www.w3.org/2000/svg">
<path d="M196.84 65.1782C198.804 66.4899 200.978 67.5706 203.438 68.4019H52.1798C39.669 68.4019 31.2836 62.6988 25.9952 55.5399C20.6764 48.34 18.5 39.6714 18.5 33.8829C18.5 28.1408 21.101 19.8777 26.646 13.0996C32.1628 6.35589 40.5567 1.12318 52.1656 1.288C75.4101 1.61802 82.5599 19.5182 83.9238 23.6343C90.261 42.7597 114.515 56.2416 139.71 40.1775C154.645 30.6551 175.648 36.2646 184.766 51.2658C188.248 56.9944 191.802 61.8134 196.84 65.1782Z" stroke="#08192D" stroke-width="2"/>
<path d="M11.2812 107.418L19.4413 88.8899H20.9133L12.8493 107.418H11.2812ZM14.0973 101.53L8.17725 88.8899H9.87325L15.2812 100.73L14.0973 101.53ZM29.9443 101.658C28.6429 101.658 27.4909 101.37 26.4883 100.794C25.4856 100.218 24.6963 99.4392 24.1203 98.4579C23.5656 97.4552 23.2883 96.3352 23.2883 95.0979C23.2883 93.8819 23.5869 92.7725 24.1843 91.7699C24.7816 90.7672 25.5816 89.9672 26.5843 89.3699C27.6083 88.7725 28.7389 88.4739 29.9763 88.4739C31.4696 88.4739 32.7176 88.9112 33.7203 89.7859C34.7443 90.6605 35.4803 91.8019 35.9283 93.2099L24.9843 97.4339L24.5363 96.3459L34.5523 92.4419L34.2323 92.8899C33.8696 92.0365 33.3149 91.3005 32.5683 90.6819C31.8429 90.0632 30.9469 89.7539 29.8802 89.7539C28.9203 89.7539 28.0563 89.9885 27.2883 90.4579C26.5203 90.9272 25.9016 91.5565 25.4323 92.3459C24.9843 93.1352 24.7603 94.0312 24.7603 95.0339C24.7603 95.9725 24.9736 96.8472 25.4003 97.6579C25.8483 98.4685 26.4669 99.1192 27.2563 99.6099C28.0456 100.101 28.9523 100.346 29.9763 100.346C30.6589 100.346 31.3096 100.218 31.9283 99.9619C32.5683 99.7059 33.1336 99.3752 33.6243 98.9699L34.3923 100.058C33.7949 100.527 33.1016 100.911 32.3123 101.21C31.5443 101.509 30.7549 101.658 29.9443 101.658ZM45.538 101.658C44.2367 101.658 43.0847 101.37 42.082 100.794C41.0793 100.218 40.29 99.4392 39.714 98.4579C39.1593 97.4552 38.882 96.3352 38.882 95.0979C38.882 93.8819 39.1807 92.7725 39.778 91.7699C40.3753 90.7672 41.1753 89.9672 42.178 89.3699C43.202 88.7725 44.3327 88.4739 45.57 88.4739C47.0633 88.4739 48.3113 88.9112 49.314 89.7859C50.338 90.6605 51.074 91.8019 51.522 93.2099L40.578 97.4339L40.13 96.3459L50.146 92.4419L49.826 92.8899C49.4633 92.0365 48.9087 91.3005 48.162 90.6819C47.4367 90.0632 46.5407 89.7539 45.474 89.7539C44.514 89.7539 43.65 89.9885 42.882 90.4579C42.114 90.9272 41.4953 91.5565 41.026 92.3459C40.578 93.1352 40.354 94.0312 40.354 95.0339C40.354 95.9725 40.5673 96.8472 40.994 97.6579C41.442 98.4685 42.0607 99.1192 42.85 99.6099C43.6393 100.101 44.546 100.346 45.57 100.346C46.2527 100.346 46.9033 100.218 47.522 99.9619C48.162 99.7059 48.7273 99.3752 49.218 98.9699L49.986 100.058C49.3887 100.527 48.6953 100.911 47.906 101.21C47.138 101.509 46.3487 101.658 45.538 101.658ZM58.6358 101.658C57.9104 101.658 57.1531 101.53 56.3638 101.274C55.5744 100.997 54.9344 100.559 54.4438 99.9619L55.1478 98.9699C55.5744 99.4179 56.0758 99.7805 56.6518 100.058C57.2491 100.314 57.8784 100.442 58.5398 100.442C59.0304 100.442 59.4891 100.378 59.9158 100.25C60.3638 100.101 60.7264 99.8552 61.0038 99.5139C61.2811 99.1725 61.4198 98.7139 61.4198 98.1379C61.4198 97.5405 61.2491 97.0819 60.9078 96.7619C60.5878 96.4419 60.1718 96.1859 59.6598 95.9939C59.1691 95.7805 58.6464 95.5885 58.0918 95.4179C57.1744 95.1192 56.4171 94.7139 55.8198 94.2019C55.2438 93.6899 54.9557 92.9645 54.9557 92.0259C54.9557 91.3432 55.1157 90.7459 55.4358 90.2339C55.7771 89.7219 56.2358 89.3272 56.8118 89.0499C57.3878 88.7512 58.0384 88.6019 58.7638 88.6019C59.4251 88.6019 60.0758 88.7085 60.7158 88.9219C61.3771 89.1352 61.9744 89.4979 62.5078 90.0099L61.8358 91.0659C61.4944 90.5965 61.0358 90.2765 60.4598 90.1059C59.9051 89.9352 59.4144 89.8392 58.9878 89.8179C58.6251 89.8179 58.2411 89.8925 57.8358 90.0419C57.4518 90.1912 57.1211 90.4152 56.8438 90.7139C56.5878 90.9912 56.4598 91.3645 56.4598 91.8339C56.4598 92.3245 56.5984 92.7299 56.8758 93.0499C57.1531 93.3485 57.5051 93.5939 57.9318 93.7859C58.3798 93.9779 58.8384 94.1592 59.3078 94.3299C59.9264 94.5219 60.5024 94.7565 61.0358 95.0339C61.5904 95.2899 62.0384 95.6419 62.3798 96.0899C62.7424 96.5165 62.9238 97.0925 62.9238 97.8179C62.9238 98.5432 62.7638 99.2045 62.4438 99.8019C62.1238 100.378 61.6438 100.837 61.0038 101.178C60.3851 101.498 59.5958 101.658 58.6358 101.658ZM67.473 88.8899H68.977V101.402H67.473V88.8899ZM67.153 84.2819C67.153 83.9832 67.2703 83.7379 67.505 83.5459C67.7397 83.3325 67.9957 83.2259 68.273 83.2259C68.5717 83.2259 68.8277 83.3325 69.041 83.5459C69.2543 83.7379 69.361 83.9832 69.361 84.2819C69.361 84.6019 69.2543 84.8685 69.041 85.0819C68.8277 85.2739 68.5717 85.3699 68.273 85.3699C67.9957 85.3699 67.7397 85.2632 67.505 85.0499C67.2703 84.8365 67.153 84.5805 67.153 84.2819ZM79.8445 101.658C78.6498 101.658 77.5618 101.391 76.5805 100.858C75.6205 100.303 74.8525 99.5352 74.2765 98.5539C73.7218 97.5725 73.4445 96.4312 73.4445 95.1299C73.4445 93.7432 73.7432 92.5592 74.3405 91.5779C74.9378 90.5752 75.7485 89.8179 76.7725 89.3059C77.7965 88.7725 78.9592 88.5059 80.2605 88.5059C81.3698 88.5059 82.4152 88.8365 83.3965 89.4979C84.3992 90.1592 85.1138 90.9912 85.5405 91.9939L85.3165 92.4419L85.5085 88.8899H86.8525V101.402H85.3485V97.5299L85.6685 98.1059C85.5192 98.5325 85.2632 98.9592 84.9005 99.3859C84.5378 99.7912 84.0898 100.175 83.5565 100.538C83.0445 100.879 82.4685 101.157 81.8285 101.37C81.2098 101.562 80.5485 101.658 79.8445 101.658ZM80.1645 100.378C81.1032 100.378 81.9458 100.186 82.6925 99.8019C83.4605 99.3965 84.0792 98.8419 84.5485 98.1379C85.0178 97.4339 85.2845 96.6232 85.3485 95.7059V93.9139C85.1778 93.1245 84.8365 92.4205 84.3245 91.8019C83.8338 91.1832 83.2258 90.6925 82.5005 90.3299C81.7752 89.9672 80.9858 89.7859 80.1325 89.7859C79.1938 89.7859 78.3298 90.0099 77.5405 90.4579C76.7512 90.8845 76.1218 91.4925 75.6525 92.2819C75.1832 93.0712 74.9485 93.9992 74.9485 95.0659C74.9485 96.0472 75.1832 96.9432 75.6525 97.7539C76.1218 98.5432 76.7512 99.1832 77.5405 99.6739C78.3512 100.143 79.2258 100.378 80.1645 100.378ZM77.2525 81.5299H78.9165L81.5725 85.7859H80.4845L77.2525 81.5299ZM95.4795 101.658C94.7542 101.658 93.9968 101.53 93.2075 101.274C92.4182 100.997 91.7782 100.559 91.2875 99.9619L91.9915 98.9699C92.4182 99.4179 92.9195 99.7805 93.4955 100.058C94.0928 100.314 94.7222 100.442 95.3835 100.442C95.8742 100.442 96.3328 100.378 96.7595 100.25C97.2075 100.101 97.5702 99.8552 97.8475 99.5139C98.1248 99.1725 98.2635 98.7139 98.2635 98.1379C98.2635 97.5405 98.0928 97.0819 97.7515 96.7619C97.4315 96.4419 97.0155 96.1859 96.5035 95.9939C96.0128 95.7805 95.4902 95.5885 94.9355 95.4179C94.0182 95.1192 93.2608 94.7139 92.6635 94.2019C92.0875 93.6899 91.7995 92.9645 91.7995 92.0259C91.7995 91.3432 91.9595 90.7459 92.2795 90.2339C92.6208 89.7219 93.0795 89.3272 93.6555 89.0499C94.2315 88.7512 94.8822 88.6019 95.6075 88.6019C96.2688 88.6019 96.9195 88.7085 97.5595 88.9219C98.2208 89.1352 98.8182 89.4979 99.3515 90.0099L98.6795 91.0659C98.3382 90.5965 97.8795 90.2765 97.3035 90.1059C96.7488 89.9352 96.2582 89.8392 95.8315 89.8179C95.4688 89.8179 95.0848 89.8925 94.6795 90.0419C94.2955 90.1912 93.9648 90.4152 93.6875 90.7139C93.4315 90.9912 93.3035 91.3645 93.3035 91.8339C93.3035 92.3245 93.4422 92.7299 93.7195 93.0499C93.9968 93.3485 94.3488 93.5939 94.7755 93.7859C95.2235 93.9779 95.6822 94.1592 96.1515 94.3299C96.7702 94.5219 97.3462 94.7565 97.8795 95.0339C98.4342 95.2899 98.8822 95.6419 99.2235 96.0899C99.5862 96.5165 99.7675 97.0925 99.7675 97.8179C99.7675 98.5432 99.6075 99.2045 99.2875 99.8019C98.9675 100.378 98.4875 100.837 97.8475 101.178C97.2288 101.498 96.4395 101.658 95.4795 101.658ZM104.317 88.8899H105.821V101.402H104.317V88.8899ZM103.997 84.2819C103.997 83.9832 104.114 83.7379 104.349 83.5459C104.583 83.3325 104.839 83.2259 105.117 83.2259C105.415 83.2259 105.671 83.3325 105.885 83.5459C106.098 83.7379 106.205 83.9832 106.205 84.2819C106.205 84.6019 106.098 84.8685 105.885 85.0819C105.671 85.2739 105.415 85.3699 105.117 85.3699C104.839 85.3699 104.583 85.2632 104.349 85.0499C104.114 84.8365 103.997 84.5805 103.997 84.2819ZM116.688 101.658C115.494 101.658 114.406 101.391 113.424 100.858C112.464 100.303 111.696 99.5352 111.12 98.5539C110.566 97.5725 110.288 96.4312 110.288 95.1299C110.288 93.7432 110.587 92.5592 111.184 91.5779C111.782 90.5752 112.592 89.8179 113.616 89.3059C114.64 88.7725 115.803 88.5059 117.104 88.5059C118.214 88.5059 119.259 88.8365 120.24 89.4979C121.243 90.1592 121.958 90.9912 122.384 91.9939L122.16 92.4419L122.352 88.8899H123.696V101.402H122.192V97.5299L122.512 98.1059C122.363 98.5325 122.107 98.9592 121.744 99.3859C121.382 99.7912 120.934 100.175 120.4 100.538C119.888 100.879 119.312 101.157 118.672 101.37C118.054 101.562 117.392 101.658 116.688 101.658ZM117.008 100.378C117.947 100.378 118.79 100.186 119.536 99.8019C120.304 99.3965 120.923 98.8419 121.392 98.1379C121.862 97.4339 122.128 96.6232 122.192 95.7059V93.9139C122.022 93.1245 121.68 92.4205 121.168 91.8019C120.678 91.1832 120.07 90.6925 119.344 90.3299C118.619 89.9672 117.83 89.7859 116.976 89.7859C116.038 89.7859 115.174 90.0099 114.384 90.4579C113.595 90.8845 112.966 91.4925 112.496 92.2819C112.027 93.0712 111.792 93.9992 111.792 95.0659C111.792 96.0472 112.027 96.9432 112.496 97.7539C112.966 98.5432 113.595 99.1832 114.384 99.6739C115.195 100.143 116.07 100.378 117.008 100.378ZM114.096 81.5299H115.76L118.416 85.7859H117.328L114.096 81.5299ZM144.76 107.514C144.056 107.514 143.384 107.429 142.744 107.258C142.104 107.109 141.474 106.842 140.856 106.458C140.237 106.074 139.597 105.573 138.936 104.954L139.832 103.93C140.749 104.805 141.602 105.391 142.392 105.69C143.181 106.01 143.949 106.17 144.696 106.17C145.997 106.17 147.032 105.957 147.8 105.53C148.568 105.125 149.122 104.57 149.464 103.866C149.805 103.183 149.986 102.415 150.008 101.562L150.04 97.4979L150.392 97.8819C149.965 98.9912 149.197 99.8979 148.088 100.602C147 101.306 145.762 101.658 144.376 101.658C143.202 101.658 142.125 101.37 141.144 100.794C140.184 100.197 139.416 99.4072 138.84 98.4259C138.264 97.4232 137.976 96.3139 137.976 95.0979C137.976 93.7965 138.274 92.6552 138.872 91.6739C139.469 90.6925 140.28 89.9245 141.304 89.3699C142.328 88.7939 143.458 88.5059 144.696 88.5059C145.848 88.5059 146.936 88.8045 147.96 89.4019C149.005 89.9992 149.762 90.7885 150.232 91.7699L150.04 92.4739L150.2 88.8899H151.544V101.594C151.544 102.618 151.309 103.578 150.84 104.474C150.392 105.391 149.666 106.127 148.664 106.682C147.682 107.237 146.381 107.514 144.76 107.514ZM139.48 95.0659C139.48 96.0472 139.714 96.9432 140.184 97.7539C140.653 98.5432 141.282 99.1832 142.072 99.6739C142.882 100.143 143.778 100.378 144.76 100.378C145.698 100.378 146.552 100.175 147.32 99.7699C148.088 99.3432 148.717 98.7779 149.208 98.0739C149.698 97.3699 149.976 96.6125 150.04 95.8019V93.9459C149.869 93.1352 149.528 92.4205 149.016 91.8019C148.525 91.1832 147.906 90.6925 147.16 90.3299C146.434 89.9672 145.634 89.7859 144.76 89.7859C143.778 89.7859 142.882 90.0099 142.072 90.4579C141.282 90.9059 140.653 91.5245 140.184 92.3139C139.714 93.1032 139.48 94.0205 139.48 95.0659ZM162.438 101.658C161.244 101.658 160.156 101.391 159.174 100.858C158.214 100.303 157.446 99.5352 156.87 98.5539C156.316 97.5725 156.038 96.4312 156.038 95.1299C156.038 93.7432 156.337 92.5592 156.934 91.5779C157.532 90.5752 158.342 89.8179 159.366 89.3059C160.39 88.7725 161.553 88.5059 162.854 88.5059C163.964 88.5059 165.009 88.8365 165.99 89.4979C166.993 90.1592 167.708 90.9912 168.134 91.9939L167.91 92.4419L168.102 88.8899H169.446V101.402H167.942V97.5299L168.262 98.1059C168.113 98.5325 167.857 98.9592 167.494 99.3859C167.132 99.7912 166.684 100.175 166.15 100.538C165.638 100.879 165.062 101.157 164.422 101.37C163.804 101.562 163.142 101.658 162.438 101.658ZM162.758 100.378C163.697 100.378 164.54 100.186 165.286 99.8019C166.054 99.3965 166.673 98.8419 167.142 98.1379C167.612 97.4339 167.878 96.6232 167.942 95.7059V93.9139C167.772 93.1245 167.43 92.4205 166.918 91.8019C166.428 91.1832 165.82 90.6925 165.094 90.3299C164.369 89.9672 163.58 89.7859 162.726 89.7859C161.788 89.7859 160.924 90.0099 160.134 90.4579C159.345 90.8845 158.716 91.4925 158.246 92.2819C157.777 93.0712 157.542 93.9992 157.542 95.0659C157.542 96.0472 157.777 96.9432 158.246 97.7539C158.716 98.5432 159.345 99.1832 160.134 99.6739C160.945 100.143 161.82 100.378 162.758 100.378ZM175.129 77.0819H176.633V101.402H175.129V77.0819ZM182.317 77.0819H183.821V101.402H182.317V77.0819ZM194.944 101.658C193.643 101.658 192.491 101.37 191.488 100.794C190.486 100.218 189.696 99.4392 189.12 98.4579C188.566 97.4552 188.288 96.3352 188.288 95.0979C188.288 93.8819 188.587 92.7725 189.184 91.7699C189.782 90.7672 190.582 89.9672 191.584 89.3699C192.608 88.7725 193.739 88.4739 194.976 88.4739C196.47 88.4739 197.718 88.9112 198.72 89.7859C199.744 90.6605 200.48 91.8019 200.928 93.2099L189.984 97.4339L189.536 96.3459L199.552 92.4419L199.232 92.8899C198.87 92.0365 198.315 91.3005 197.568 90.6819C196.843 90.0632 195.947 89.7539 194.88 89.7539C193.92 89.7539 193.056 89.9885 192.288 90.4579C191.52 90.9272 190.902 91.5565 190.432 92.3459C189.984 93.1352 189.76 94.0312 189.76 95.0339C189.76 95.9725 189.974 96.8472 190.4 97.6579C190.848 98.4685 191.467 99.1192 192.256 99.6099C193.046 100.101 193.952 100.346 194.976 100.346C195.659 100.346 196.31 100.218 196.928 99.9619C197.568 99.7059 198.134 99.3752 198.624 98.9699L199.392 100.058C198.795 100.527 198.102 100.911 197.312 101.21C196.544 101.509 195.755 101.658 194.944 101.658ZM206.41 88.8899L206.57 92.7299L206.378 92.2499C206.655 91.4819 207.093 90.8205 207.69 90.2659C208.287 89.7112 208.949 89.2845 209.674 88.9859C210.421 88.6872 211.135 88.5379 211.818 88.5379L211.754 90.0099C210.794 90.0099 209.919 90.2232 209.13 90.6499C208.362 91.0765 207.743 91.6525 207.274 92.3779C206.826 93.0819 206.602 93.8819 206.602 94.7779V101.402H205.098V88.8899H206.41ZM217.188 107.418L225.348 88.8899H226.82L218.756 107.418H217.188ZM220.004 101.53L214.084 88.8899H215.78L221.188 100.73L220.004 101.53Z" fill="#08192D"/>
</svg>
