<svg width="641" height="225" viewBox="0 0 641 225" fill="none" xmlns="http://www.w3.org/2000/svg">
<path d="M175.816 152C147.673 152 128.754 139.154 116.839 123.036C104.895 106.876 100 87.4313 100 74.3746C100 61.3643 105.871 42.8054 118.318 27.6001C130.736 12.4292 149.664 0.637657 175.802 1.00852C228.103 1.75061 244.217 42.063 247.282 51.3065C261.084 92.9355 313.941 122.395 369.042 87.2854C402.735 65.8164 450.007 78.4735 470.532 112.224C478.221 124.866 485.982 135.345 496.913 142.641C503.36 146.945 510.873 150.118 520.066 152H175.816Z" stroke="white" stroke-width="2"/>
<path d="M108.062 221.032L124.383 183.976H127.327L111.199 221.032H108.062ZM113.695 209.256L101.855 183.976H105.247L116.062 207.656L113.695 209.256ZM145.389 209.512C142.786 209.512 140.482 208.936 138.477 207.784C136.471 206.632 134.893 205.075 133.741 203.112C132.631 201.107 132.077 198.867 132.077 196.392C132.077 193.96 132.674 191.741 133.869 189.736C135.063 187.731 136.663 186.131 138.669 184.936C140.717 183.741 142.978 183.144 145.453 183.144C148.439 183.144 150.935 184.019 152.941 185.768C154.989 187.517 156.461 189.8 157.357 192.616L135.469 201.064L134.573 198.888L154.605 191.08L153.965 191.976C153.239 190.269 152.13 188.797 150.637 187.56C149.186 186.323 147.394 185.704 145.26 185.704C143.341 185.704 141.613 186.173 140.077 187.112C138.541 188.051 137.303 189.309 136.365 190.888C135.469 192.467 135.021 194.259 135.021 196.264C135.021 198.141 135.447 199.891 136.301 201.512C137.197 203.133 138.434 204.435 140.013 205.416C141.591 206.397 143.405 206.888 145.453 206.888C146.818 206.888 148.119 206.632 149.357 206.12C150.637 205.608 151.767 204.947 152.749 204.136L154.285 206.312C153.09 207.251 151.703 208.019 150.125 208.616C148.589 209.213 147.01 209.512 145.389 209.512ZM176.576 209.512C173.973 209.512 171.669 208.936 169.664 207.784C167.659 206.632 166.08 205.075 164.928 203.112C163.819 201.107 163.264 198.867 163.264 196.392C163.264 193.96 163.861 191.741 165.056 189.736C166.251 187.731 167.851 186.131 169.856 184.936C171.904 183.741 174.165 183.144 176.64 183.144C179.627 183.144 182.123 184.019 184.128 185.768C186.176 187.517 187.648 189.8 188.544 192.616L166.656 201.064L165.76 198.888L185.792 191.08L185.152 191.976C184.427 190.269 183.317 188.797 181.824 187.56C180.373 186.323 178.581 185.704 176.448 185.704C174.528 185.704 172.8 186.173 171.264 187.112C169.728 188.051 168.491 189.309 167.552 190.888C166.656 192.467 166.208 194.259 166.208 196.264C166.208 198.141 166.635 199.891 167.488 201.512C168.384 203.133 169.621 204.435 171.2 205.416C172.779 206.397 174.592 206.888 176.64 206.888C178.005 206.888 179.307 206.632 180.544 206.12C181.824 205.608 182.955 204.947 183.936 204.136L185.472 206.312C184.277 207.251 182.891 208.019 181.312 208.616C179.776 209.213 178.197 209.512 176.576 209.512ZM202.772 209.512C201.321 209.512 199.806 209.256 198.228 208.744C196.649 208.189 195.369 207.315 194.388 206.12L195.796 204.136C196.649 205.032 197.652 205.757 198.804 206.312C199.998 206.824 201.257 207.08 202.58 207.08C203.561 207.08 204.478 206.952 205.332 206.696C206.228 206.397 206.953 205.907 207.508 205.224C208.062 204.541 208.34 203.624 208.34 202.472C208.34 201.277 207.998 200.36 207.316 199.72C206.676 199.08 205.844 198.568 204.82 198.184C203.838 197.757 202.793 197.373 201.684 197.032C199.849 196.435 198.334 195.624 197.14 194.6C195.988 193.576 195.411 192.125 195.411 190.248C195.411 188.883 195.731 187.688 196.372 186.664C197.054 185.64 197.972 184.851 199.124 184.296C200.276 183.699 201.577 183.4 203.028 183.4C204.35 183.4 205.652 183.613 206.932 184.04C208.254 184.467 209.449 185.192 210.516 186.216L209.172 188.328C208.489 187.389 207.572 186.749 206.42 186.408C205.31 186.067 204.329 185.875 203.476 185.832C202.75 185.832 201.982 185.981 201.172 186.28C200.404 186.579 199.742 187.027 199.188 187.624C198.676 188.179 198.42 188.925 198.42 189.864C198.42 190.845 198.697 191.656 199.252 192.296C199.806 192.893 200.51 193.384 201.364 193.768C202.26 194.152 203.177 194.515 204.116 194.856C205.353 195.24 206.505 195.709 207.572 196.264C208.681 196.776 209.577 197.48 210.26 198.376C210.985 199.229 211.348 200.381 211.348 201.832C211.348 203.283 211.028 204.605 210.388 205.8C209.748 206.952 208.788 207.869 207.508 208.552C206.27 209.192 204.692 209.512 202.772 209.512ZM220.446 183.976H223.454V209H220.446V183.976ZM219.806 174.76C219.806 174.163 220.041 173.672 220.51 173.288C220.979 172.861 221.491 172.648 222.046 172.648C222.643 172.648 223.155 172.861 223.582 173.288C224.009 173.672 224.222 174.163 224.222 174.76C224.222 175.4 224.009 175.933 223.582 176.36C223.155 176.744 222.643 176.936 222.046 176.936C221.491 176.936 220.979 176.723 220.51 176.296C220.041 175.869 219.806 175.357 219.806 174.76ZM245.189 209.512C242.8 209.512 240.624 208.979 238.661 207.912C236.741 206.803 235.205 205.267 234.053 203.304C232.944 201.341 232.389 199.059 232.389 196.456C232.389 193.683 232.986 191.315 234.181 189.352C235.376 187.347 236.997 185.832 239.045 184.808C241.093 183.741 243.418 183.208 246.021 183.208C248.24 183.208 250.33 183.869 252.293 185.192C254.298 186.515 255.728 188.179 256.581 190.184L256.133 191.08L256.517 183.976H259.205V209H256.197V201.256L256.837 202.408C256.538 203.261 256.026 204.115 255.301 204.968C254.576 205.779 253.68 206.547 252.613 207.272C251.589 207.955 250.437 208.509 249.157 208.936C247.92 209.32 246.597 209.512 245.189 209.512ZM245.829 206.952C247.706 206.952 249.392 206.568 250.885 205.8C252.421 204.989 253.658 203.88 254.597 202.472C255.536 201.064 256.069 199.443 256.197 197.608V194.024C255.856 192.445 255.173 191.037 254.149 189.8C253.168 188.563 251.952 187.581 250.501 186.856C249.05 186.131 247.472 185.768 245.765 185.768C243.888 185.768 242.16 186.216 240.581 187.112C239.002 187.965 237.744 189.181 236.805 190.76C235.866 192.339 235.397 194.195 235.397 196.328C235.397 198.291 235.866 200.083 236.805 201.704C237.744 203.283 239.002 204.563 240.581 205.544C242.202 206.483 243.952 206.952 245.829 206.952ZM240.005 169.256H243.333L248.645 177.768H246.469L240.005 169.256ZM276.459 209.512C275.008 209.512 273.494 209.256 271.915 208.744C270.336 208.189 269.056 207.315 268.075 206.12L269.483 204.136C270.336 205.032 271.339 205.757 272.491 206.312C273.686 206.824 274.944 207.08 276.267 207.08C277.248 207.08 278.166 206.952 279.019 206.696C279.915 206.397 280.64 205.907 281.195 205.224C281.75 204.541 282.027 203.624 282.027 202.472C282.027 201.277 281.686 200.36 281.003 199.72C280.363 199.08 279.531 198.568 278.507 198.184C277.526 197.757 276.48 197.373 275.371 197.032C273.536 196.435 272.022 195.624 270.827 194.6C269.675 193.576 269.099 192.125 269.099 190.248C269.099 188.883 269.419 187.688 270.059 186.664C270.742 185.64 271.659 184.851 272.811 184.296C273.963 183.699 275.264 183.4 276.715 183.4C278.038 183.4 279.339 183.613 280.619 184.04C281.942 184.467 283.136 185.192 284.203 186.216L282.859 188.328C282.176 187.389 281.259 186.749 280.107 186.408C278.998 186.067 278.016 185.875 277.163 185.832C276.438 185.832 275.67 185.981 274.859 186.28C274.091 186.579 273.43 187.027 272.875 187.624C272.363 188.179 272.107 188.925 272.107 189.864C272.107 190.845 272.384 191.656 272.939 192.296C273.494 192.893 274.198 193.384 275.051 193.768C275.947 194.152 276.864 194.515 277.803 194.856C279.04 195.24 280.192 195.709 281.259 196.264C282.368 196.776 283.264 197.48 283.947 198.376C284.672 199.229 285.035 200.381 285.035 201.832C285.035 203.283 284.715 204.605 284.075 205.8C283.435 206.952 282.475 207.869 281.195 208.552C279.958 209.192 278.379 209.512 276.459 209.512ZM294.134 183.976H297.142V209H294.134V183.976ZM293.494 174.76C293.494 174.163 293.728 173.672 294.198 173.288C294.667 172.861 295.179 172.648 295.734 172.648C296.331 172.648 296.843 172.861 297.27 173.288C297.696 173.672 297.91 174.163 297.91 174.76C297.91 175.4 297.696 175.933 297.27 176.36C296.843 176.744 296.331 176.936 295.734 176.936C295.179 176.936 294.667 176.723 294.198 176.296C293.728 175.869 293.494 175.357 293.494 174.76ZM318.877 209.512C316.487 209.512 314.311 208.979 312.349 207.912C310.429 206.803 308.893 205.267 307.741 203.304C306.631 201.341 306.077 199.059 306.077 196.456C306.077 193.683 306.674 191.315 307.869 189.352C309.063 187.347 310.685 185.832 312.733 184.808C314.781 183.741 317.106 183.208 319.708 183.208C321.927 183.208 324.018 183.869 325.981 185.192C327.986 186.515 329.415 188.179 330.269 190.184L329.821 191.08L330.205 183.976H332.893V209H329.885V201.256L330.525 202.408C330.226 203.261 329.714 204.115 328.989 204.968C328.263 205.779 327.367 206.547 326.301 207.272C325.277 207.955 324.125 208.509 322.845 208.936C321.607 209.32 320.285 209.512 318.877 209.512ZM319.517 206.952C321.394 206.952 323.079 206.568 324.573 205.8C326.109 204.989 327.346 203.88 328.285 202.472C329.223 201.064 329.757 199.443 329.885 197.608V194.024C329.543 192.445 328.861 191.037 327.837 189.8C326.855 188.563 325.639 187.581 324.189 186.856C322.738 186.131 321.159 185.768 319.453 185.768C317.575 185.768 315.847 186.216 314.269 187.112C312.69 187.965 311.431 189.181 310.493 190.76C309.554 192.339 309.085 194.195 309.085 196.328C309.085 198.291 309.554 200.083 310.493 201.704C311.431 203.283 312.69 204.563 314.269 205.544C315.89 206.483 317.639 206.952 319.517 206.952ZM313.693 169.256H317.021L322.333 177.768H320.157L313.693 169.256ZM375.02 221.224C373.612 221.224 372.268 221.053 370.988 220.712C369.708 220.413 368.449 219.88 367.212 219.112C365.974 218.344 364.694 217.341 363.372 216.104L365.164 214.056C366.998 215.805 368.705 216.979 370.284 217.576C371.862 218.216 373.398 218.536 374.892 218.536C377.494 218.536 379.564 218.109 381.1 217.256C382.636 216.445 383.745 215.336 384.428 213.928C385.11 212.563 385.473 211.027 385.516 209.32L385.58 201.192L386.284 201.96C385.43 204.179 383.894 205.992 381.676 207.4C379.5 208.808 377.025 209.512 374.252 209.512C371.905 209.512 369.75 208.936 367.788 207.784C365.868 206.589 364.332 205.011 363.18 203.048C362.028 201.043 361.452 198.824 361.452 196.392C361.452 193.789 362.049 191.507 363.244 189.544C364.438 187.581 366.06 186.045 368.108 184.936C370.156 183.784 372.417 183.208 374.892 183.208C377.196 183.208 379.372 183.805 381.42 185C383.51 186.195 385.025 187.773 385.964 189.736L385.58 191.144L385.9 183.976H388.588V209.384C388.588 211.432 388.118 213.352 387.18 215.144C386.284 216.979 384.833 218.451 382.828 219.56C380.865 220.669 378.262 221.224 375.02 221.224ZM364.46 196.328C364.46 198.291 364.929 200.083 365.868 201.704C366.806 203.283 368.065 204.563 369.644 205.544C371.265 206.483 373.057 206.952 375.02 206.952C376.897 206.952 378.604 206.547 380.14 205.736C381.676 204.883 382.934 203.752 383.916 202.344C384.897 200.936 385.452 199.421 385.58 197.8V194.088C385.238 192.467 384.556 191.037 383.532 189.8C382.55 188.563 381.313 187.581 379.82 186.856C378.369 186.131 376.769 185.768 375.02 185.768C373.057 185.768 371.265 186.216 369.644 187.112C368.065 188.008 366.806 189.245 365.868 190.824C364.929 192.403 364.46 194.237 364.46 196.328ZM410.377 209.512C407.987 209.512 405.811 208.979 403.849 207.912C401.929 206.803 400.393 205.267 399.241 203.304C398.131 201.341 397.577 199.059 397.577 196.456C397.577 193.683 398.174 191.315 399.369 189.352C400.563 187.347 402.185 185.832 404.233 184.808C406.281 183.741 408.606 183.208 411.208 183.208C413.427 183.208 415.518 183.869 417.481 185.192C419.486 186.515 420.915 188.179 421.769 190.184L421.321 191.08L421.705 183.976H424.393V209H421.385V201.256L422.025 202.408C421.726 203.261 421.214 204.115 420.489 204.968C419.763 205.779 418.867 206.547 417.801 207.272C416.777 207.955 415.625 208.509 414.345 208.936C413.107 209.32 411.785 209.512 410.377 209.512ZM411.017 206.952C412.894 206.952 414.579 206.568 416.073 205.8C417.609 204.989 418.846 203.88 419.785 202.472C420.723 201.064 421.257 199.443 421.385 197.608V194.024C421.043 192.445 420.361 191.037 419.337 189.8C418.355 188.563 417.139 187.581 415.689 186.856C414.238 186.131 412.659 185.768 410.953 185.768C409.075 185.768 407.347 186.216 405.769 187.112C404.19 187.965 402.931 189.181 401.993 190.76C401.054 192.339 400.585 194.195 400.585 196.328C400.585 198.291 401.054 200.083 401.993 201.704C402.931 203.283 404.19 204.563 405.769 205.544C407.39 206.483 409.139 206.952 411.017 206.952ZM435.759 160.36H438.767V209H435.759V160.36ZM450.134 160.36H453.142V209H450.134V160.36ZM475.389 209.512C472.786 209.512 470.482 208.936 468.477 207.784C466.471 206.632 464.893 205.075 463.741 203.112C462.631 201.107 462.077 198.867 462.077 196.392C462.077 193.96 462.674 191.741 463.869 189.736C465.063 187.731 466.663 186.131 468.669 184.936C470.717 183.741 472.978 183.144 475.453 183.144C478.439 183.144 480.935 184.019 482.941 185.768C484.989 187.517 486.461 189.8 487.357 192.616L465.469 201.064L464.573 198.888L484.605 191.08L483.965 191.976C483.239 190.269 482.13 188.797 480.637 187.56C479.186 186.323 477.394 185.704 475.26 185.704C473.341 185.704 471.613 186.173 470.077 187.112C468.541 188.051 467.303 189.309 466.365 190.888C465.469 192.467 465.021 194.259 465.021 196.264C465.021 198.141 465.447 199.891 466.301 201.512C467.197 203.133 468.434 204.435 470.013 205.416C471.591 206.397 473.405 206.888 475.453 206.888C476.818 206.888 478.119 206.632 479.357 206.12C480.637 205.608 481.767 204.947 482.749 204.136L484.285 206.312C483.09 207.251 481.703 208.019 480.125 208.616C478.589 209.213 477.01 209.512 475.389 209.512ZM498.32 183.976L498.64 191.656L498.256 190.696C498.811 189.16 499.685 187.837 500.88 186.728C502.075 185.619 503.397 184.765 504.848 184.168C506.341 183.571 507.771 183.272 509.136 183.272L509.008 186.216C507.088 186.216 505.339 186.643 503.76 187.496C502.224 188.349 500.987 189.501 500.048 190.952C499.152 192.36 498.704 193.96 498.704 195.752V209H495.696V183.976H498.32ZM519.875 221.032L536.195 183.976H539.139L523.011 221.032H519.875ZM525.507 209.256L513.667 183.976H517.059L527.875 207.656L525.507 209.256Z" fill="white"/>
</svg>
