<svg width="649" height="233" viewBox="0 0 649 233" fill="none" xmlns="http://www.w3.org/2000/svg">
<g filter="url(#filter0_d_340_2855)">
<path d="M179.816 152C151.673 152 132.754 139.154 120.839 123.036C108.895 106.876 104 87.4313 104 74.3746C104 61.3643 109.871 42.8054 122.318 27.6001C134.736 12.4292 153.664 0.637657 179.802 1.00852C232.103 1.75061 248.217 42.063 251.282 51.3065C265.084 92.9355 317.941 122.395 373.042 87.2854C406.735 65.8164 454.007 78.4735 474.532 112.224C482.221 124.866 489.982 135.345 500.913 142.641C507.36 146.945 514.873 150.118 524.066 152H179.816Z" stroke="white" stroke-width="2"/>
<path d="M112.062 221.032L128.383 183.976H131.327L115.199 221.032H112.062ZM117.695 209.256L105.855 183.976H109.247L120.062 207.656L117.695 209.256ZM149.389 209.512C146.786 209.512 144.482 208.936 142.477 207.784C140.471 206.632 138.893 205.075 137.741 203.112C136.631 201.107 136.077 198.867 136.077 196.392C136.077 193.96 136.674 191.741 137.869 189.736C139.063 187.731 140.663 186.131 142.669 184.936C144.717 183.741 146.978 183.144 149.453 183.144C152.439 183.144 154.935 184.019 156.941 185.768C158.989 187.517 160.461 189.8 161.357 192.616L139.469 201.064L138.573 198.888L158.605 191.08L157.965 191.976C157.239 190.269 156.13 188.797 154.637 187.56C153.186 186.323 151.394 185.704 149.26 185.704C147.341 185.704 145.613 186.173 144.077 187.112C142.541 188.051 141.303 189.309 140.365 190.888C139.469 192.467 139.021 194.259 139.021 196.264C139.021 198.141 139.447 199.891 140.301 201.512C141.197 203.133 142.434 204.435 144.013 205.416C145.591 206.397 147.405 206.888 149.453 206.888C150.818 206.888 152.119 206.632 153.357 206.12C154.637 205.608 155.767 204.947 156.749 204.136L158.285 206.312C157.09 207.251 155.703 208.019 154.125 208.616C152.589 209.213 151.01 209.512 149.389 209.512ZM180.576 209.512C177.973 209.512 175.669 208.936 173.664 207.784C171.659 206.632 170.08 205.075 168.928 203.112C167.819 201.107 167.264 198.867 167.264 196.392C167.264 193.96 167.861 191.741 169.056 189.736C170.251 187.731 171.851 186.131 173.856 184.936C175.904 183.741 178.165 183.144 180.64 183.144C183.627 183.144 186.123 184.019 188.128 185.768C190.176 187.517 191.648 189.8 192.544 192.616L170.656 201.064L169.76 198.888L189.792 191.08L189.152 191.976C188.427 190.269 187.317 188.797 185.824 187.56C184.373 186.323 182.581 185.704 180.448 185.704C178.528 185.704 176.8 186.173 175.264 187.112C173.728 188.051 172.491 189.309 171.552 190.888C170.656 192.467 170.208 194.259 170.208 196.264C170.208 198.141 170.635 199.891 171.488 201.512C172.384 203.133 173.621 204.435 175.2 205.416C176.779 206.397 178.592 206.888 180.64 206.888C182.005 206.888 183.307 206.632 184.544 206.12C185.824 205.608 186.955 204.947 187.936 204.136L189.472 206.312C188.277 207.251 186.891 208.019 185.312 208.616C183.776 209.213 182.197 209.512 180.576 209.512ZM206.772 209.512C205.321 209.512 203.806 209.256 202.228 208.744C200.649 208.189 199.369 207.315 198.388 206.12L199.796 204.136C200.649 205.032 201.652 205.757 202.804 206.312C203.998 206.824 205.257 207.08 206.58 207.08C207.561 207.08 208.478 206.952 209.332 206.696C210.228 206.397 210.953 205.907 211.508 205.224C212.062 204.541 212.34 203.624 212.34 202.472C212.34 201.277 211.998 200.36 211.316 199.72C210.676 199.08 209.844 198.568 208.82 198.184C207.838 197.757 206.793 197.373 205.684 197.032C203.849 196.435 202.334 195.624 201.14 194.6C199.988 193.576 199.411 192.125 199.411 190.248C199.411 188.883 199.731 187.688 200.372 186.664C201.054 185.64 201.972 184.851 203.124 184.296C204.276 183.699 205.577 183.4 207.028 183.4C208.35 183.4 209.652 183.613 210.932 184.04C212.254 184.467 213.449 185.192 214.516 186.216L213.172 188.328C212.489 187.389 211.572 186.749 210.42 186.408C209.31 186.067 208.329 185.875 207.476 185.832C206.75 185.832 205.982 185.981 205.172 186.28C204.404 186.579 203.742 187.027 203.188 187.624C202.676 188.179 202.42 188.925 202.42 189.864C202.42 190.845 202.697 191.656 203.252 192.296C203.806 192.893 204.51 193.384 205.364 193.768C206.26 194.152 207.177 194.515 208.116 194.856C209.353 195.24 210.505 195.709 211.572 196.264C212.681 196.776 213.577 197.48 214.26 198.376C214.985 199.229 215.348 200.381 215.348 201.832C215.348 203.283 215.028 204.605 214.388 205.8C213.748 206.952 212.788 207.869 211.508 208.552C210.27 209.192 208.692 209.512 206.772 209.512ZM224.446 183.976H227.454V209H224.446V183.976ZM223.806 174.76C223.806 174.163 224.041 173.672 224.51 173.288C224.979 172.861 225.491 172.648 226.046 172.648C226.643 172.648 227.155 172.861 227.582 173.288C228.009 173.672 228.222 174.163 228.222 174.76C228.222 175.4 228.009 175.933 227.582 176.36C227.155 176.744 226.643 176.936 226.046 176.936C225.491 176.936 224.979 176.723 224.51 176.296C224.041 175.869 223.806 175.357 223.806 174.76ZM249.189 209.512C246.8 209.512 244.624 208.979 242.661 207.912C240.741 206.803 239.205 205.267 238.053 203.304C236.944 201.341 236.389 199.059 236.389 196.456C236.389 193.683 236.986 191.315 238.181 189.352C239.376 187.347 240.997 185.832 243.045 184.808C245.093 183.741 247.418 183.208 250.021 183.208C252.24 183.208 254.33 183.869 256.293 185.192C258.298 186.515 259.728 188.179 260.581 190.184L260.133 191.08L260.517 183.976H263.205V209H260.197V201.256L260.837 202.408C260.538 203.261 260.026 204.115 259.301 204.968C258.576 205.779 257.68 206.547 256.613 207.272C255.589 207.955 254.437 208.509 253.157 208.936C251.92 209.32 250.597 209.512 249.189 209.512ZM249.829 206.952C251.706 206.952 253.392 206.568 254.885 205.8C256.421 204.989 257.658 203.88 258.597 202.472C259.536 201.064 260.069 199.443 260.197 197.608V194.024C259.856 192.445 259.173 191.037 258.149 189.8C257.168 188.563 255.952 187.581 254.501 186.856C253.05 186.131 251.472 185.768 249.765 185.768C247.888 185.768 246.16 186.216 244.581 187.112C243.002 187.965 241.744 189.181 240.805 190.76C239.866 192.339 239.397 194.195 239.397 196.328C239.397 198.291 239.866 200.083 240.805 201.704C241.744 203.283 243.002 204.563 244.581 205.544C246.202 206.483 247.952 206.952 249.829 206.952ZM244.005 169.256H247.333L252.645 177.768H250.469L244.005 169.256ZM280.459 209.512C279.008 209.512 277.494 209.256 275.915 208.744C274.336 208.189 273.056 207.315 272.075 206.12L273.483 204.136C274.336 205.032 275.339 205.757 276.491 206.312C277.686 206.824 278.944 207.08 280.267 207.08C281.248 207.08 282.166 206.952 283.019 206.696C283.915 206.397 284.64 205.907 285.195 205.224C285.75 204.541 286.027 203.624 286.027 202.472C286.027 201.277 285.686 200.36 285.003 199.72C284.363 199.08 283.531 198.568 282.507 198.184C281.526 197.757 280.48 197.373 279.371 197.032C277.536 196.435 276.022 195.624 274.827 194.6C273.675 193.576 273.099 192.125 273.099 190.248C273.099 188.883 273.419 187.688 274.059 186.664C274.742 185.64 275.659 184.851 276.811 184.296C277.963 183.699 279.264 183.4 280.715 183.4C282.038 183.4 283.339 183.613 284.619 184.04C285.942 184.467 287.136 185.192 288.203 186.216L286.859 188.328C286.176 187.389 285.259 186.749 284.107 186.408C282.998 186.067 282.016 185.875 281.163 185.832C280.438 185.832 279.67 185.981 278.859 186.28C278.091 186.579 277.43 187.027 276.875 187.624C276.363 188.179 276.107 188.925 276.107 189.864C276.107 190.845 276.384 191.656 276.939 192.296C277.494 192.893 278.198 193.384 279.051 193.768C279.947 194.152 280.864 194.515 281.803 194.856C283.04 195.24 284.192 195.709 285.259 196.264C286.368 196.776 287.264 197.48 287.947 198.376C288.672 199.229 289.035 200.381 289.035 201.832C289.035 203.283 288.715 204.605 288.075 205.8C287.435 206.952 286.475 207.869 285.195 208.552C283.958 209.192 282.379 209.512 280.459 209.512ZM298.134 183.976H301.142V209H298.134V183.976ZM297.494 174.76C297.494 174.163 297.728 173.672 298.198 173.288C298.667 172.861 299.179 172.648 299.734 172.648C300.331 172.648 300.843 172.861 301.27 173.288C301.696 173.672 301.91 174.163 301.91 174.76C301.91 175.4 301.696 175.933 301.27 176.36C300.843 176.744 300.331 176.936 299.734 176.936C299.179 176.936 298.667 176.723 298.198 176.296C297.728 175.869 297.494 175.357 297.494 174.76ZM322.877 209.512C320.487 209.512 318.311 208.979 316.349 207.912C314.429 206.803 312.893 205.267 311.741 203.304C310.631 201.341 310.077 199.059 310.077 196.456C310.077 193.683 310.674 191.315 311.869 189.352C313.063 187.347 314.685 185.832 316.733 184.808C318.781 183.741 321.106 183.208 323.708 183.208C325.927 183.208 328.018 183.869 329.981 185.192C331.986 186.515 333.415 188.179 334.269 190.184L333.821 191.08L334.205 183.976H336.893V209H333.885V201.256L334.525 202.408C334.226 203.261 333.714 204.115 332.989 204.968C332.263 205.779 331.367 206.547 330.301 207.272C329.277 207.955 328.125 208.509 326.845 208.936C325.607 209.32 324.285 209.512 322.877 209.512ZM323.517 206.952C325.394 206.952 327.079 206.568 328.573 205.8C330.109 204.989 331.346 203.88 332.285 202.472C333.223 201.064 333.757 199.443 333.885 197.608V194.024C333.543 192.445 332.861 191.037 331.837 189.8C330.855 188.563 329.639 187.581 328.189 186.856C326.738 186.131 325.159 185.768 323.453 185.768C321.575 185.768 319.847 186.216 318.269 187.112C316.69 187.965 315.431 189.181 314.493 190.76C313.554 192.339 313.085 194.195 313.085 196.328C313.085 198.291 313.554 200.083 314.493 201.704C315.431 203.283 316.69 204.563 318.269 205.544C319.89 206.483 321.639 206.952 323.517 206.952ZM317.693 169.256H321.021L326.333 177.768H324.157L317.693 169.256ZM379.02 221.224C377.612 221.224 376.268 221.053 374.988 220.712C373.708 220.413 372.449 219.88 371.212 219.112C369.974 218.344 368.694 217.341 367.372 216.104L369.164 214.056C370.998 215.805 372.705 216.979 374.284 217.576C375.862 218.216 377.398 218.536 378.892 218.536C381.494 218.536 383.564 218.109 385.1 217.256C386.636 216.445 387.745 215.336 388.428 213.928C389.11 212.563 389.473 211.027 389.516 209.32L389.58 201.192L390.284 201.96C389.43 204.179 387.894 205.992 385.676 207.4C383.5 208.808 381.025 209.512 378.252 209.512C375.905 209.512 373.75 208.936 371.788 207.784C369.868 206.589 368.332 205.011 367.18 203.048C366.028 201.043 365.452 198.824 365.452 196.392C365.452 193.789 366.049 191.507 367.244 189.544C368.438 187.581 370.06 186.045 372.108 184.936C374.156 183.784 376.417 183.208 378.892 183.208C381.196 183.208 383.372 183.805 385.42 185C387.51 186.195 389.025 187.773 389.964 189.736L389.58 191.144L389.9 183.976H392.588V209.384C392.588 211.432 392.118 213.352 391.18 215.144C390.284 216.979 388.833 218.451 386.828 219.56C384.865 220.669 382.262 221.224 379.02 221.224ZM368.46 196.328C368.46 198.291 368.929 200.083 369.868 201.704C370.806 203.283 372.065 204.563 373.644 205.544C375.265 206.483 377.057 206.952 379.02 206.952C380.897 206.952 382.604 206.547 384.14 205.736C385.676 204.883 386.934 203.752 387.916 202.344C388.897 200.936 389.452 199.421 389.58 197.8V194.088C389.238 192.467 388.556 191.037 387.532 189.8C386.55 188.563 385.313 187.581 383.82 186.856C382.369 186.131 380.769 185.768 379.02 185.768C377.057 185.768 375.265 186.216 373.644 187.112C372.065 188.008 370.806 189.245 369.868 190.824C368.929 192.403 368.46 194.237 368.46 196.328ZM414.377 209.512C411.987 209.512 409.811 208.979 407.849 207.912C405.929 206.803 404.393 205.267 403.241 203.304C402.131 201.341 401.577 199.059 401.577 196.456C401.577 193.683 402.174 191.315 403.369 189.352C404.563 187.347 406.185 185.832 408.233 184.808C410.281 183.741 412.606 183.208 415.208 183.208C417.427 183.208 419.518 183.869 421.481 185.192C423.486 186.515 424.915 188.179 425.769 190.184L425.321 191.08L425.705 183.976H428.393V209H425.385V201.256L426.025 202.408C425.726 203.261 425.214 204.115 424.489 204.968C423.763 205.779 422.867 206.547 421.801 207.272C420.777 207.955 419.625 208.509 418.345 208.936C417.107 209.32 415.785 209.512 414.377 209.512ZM415.017 206.952C416.894 206.952 418.579 206.568 420.073 205.8C421.609 204.989 422.846 203.88 423.785 202.472C424.723 201.064 425.257 199.443 425.385 197.608V194.024C425.043 192.445 424.361 191.037 423.337 189.8C422.355 188.563 421.139 187.581 419.689 186.856C418.238 186.131 416.659 185.768 414.953 185.768C413.075 185.768 411.347 186.216 409.769 187.112C408.19 187.965 406.931 189.181 405.993 190.76C405.054 192.339 404.585 194.195 404.585 196.328C404.585 198.291 405.054 200.083 405.993 201.704C406.931 203.283 408.19 204.563 409.769 205.544C411.39 206.483 413.139 206.952 415.017 206.952ZM439.759 160.36H442.767V209H439.759V160.36ZM454.134 160.36H457.142V209H454.134V160.36ZM479.389 209.512C476.786 209.512 474.482 208.936 472.477 207.784C470.471 206.632 468.893 205.075 467.741 203.112C466.631 201.107 466.077 198.867 466.077 196.392C466.077 193.96 466.674 191.741 467.869 189.736C469.063 187.731 470.663 186.131 472.669 184.936C474.717 183.741 476.978 183.144 479.453 183.144C482.439 183.144 484.935 184.019 486.941 185.768C488.989 187.517 490.461 189.8 491.357 192.616L469.469 201.064L468.573 198.888L488.605 191.08L487.965 191.976C487.239 190.269 486.13 188.797 484.637 187.56C483.186 186.323 481.394 185.704 479.26 185.704C477.341 185.704 475.613 186.173 474.077 187.112C472.541 188.051 471.303 189.309 470.365 190.888C469.469 192.467 469.021 194.259 469.021 196.264C469.021 198.141 469.447 199.891 470.301 201.512C471.197 203.133 472.434 204.435 474.013 205.416C475.591 206.397 477.405 206.888 479.453 206.888C480.818 206.888 482.119 206.632 483.357 206.12C484.637 205.608 485.767 204.947 486.749 204.136L488.285 206.312C487.09 207.251 485.703 208.019 484.125 208.616C482.589 209.213 481.01 209.512 479.389 209.512ZM502.32 183.976L502.64 191.656L502.256 190.696C502.811 189.16 503.685 187.837 504.88 186.728C506.075 185.619 507.397 184.765 508.848 184.168C510.341 183.571 511.771 183.272 513.136 183.272L513.008 186.216C511.088 186.216 509.339 186.643 507.76 187.496C506.224 188.349 504.987 189.501 504.048 190.952C503.152 192.36 502.704 193.96 502.704 195.752V209H499.696V183.976H502.32ZM523.875 221.032L540.195 183.976H543.139L527.011 221.032H523.875ZM529.507 209.256L517.667 183.976H521.059L531.875 207.656L529.507 209.256Z" fill="white"/>
</g>
<defs>
<filter id="filter0_d_340_2855" x="0" y="0" width="649" height="233" filterUnits="userSpaceOnUse" color-interpolation-filters="sRGB">
<feFlood flood-opacity="0" result="BackgroundImageFix"/>
<feColorMatrix in="SourceAlpha" type="matrix" values="0 0 0 0 0 0 0 0 0 0 0 0 0 0 0 0 0 0 127 0" result="hardAlpha"/>
<feOffset dy="4"/>
<feGaussianBlur stdDeviation="2"/>
<feComposite in2="hardAlpha" operator="out"/>
<feColorMatrix type="matrix" values="0 0 0 0 1 0 0 0 0 1 0 0 0 0 1 0 0 0 0.25 0"/>
<feBlend mode="normal" in2="BackgroundImageFix" result="effect1_dropShadow_340_2855"/>
<feBlend mode="normal" in="SourceGraphic" in2="effect1_dropShadow_340_2855" result="shape"/>
</filter>
</defs>
</svg>
