<svg width="40" height="41" viewBox="0 0 40 41" fill="none" xmlns="http://www.w3.org/2000/svg">
<path d="M33.75 2.85596H6.25C5.25544 2.85596 4.30161 3.25105 3.59835 3.95431C2.89509 4.65757 2.5 5.6114 2.5 6.60596L2.5 34.106C2.5 35.1005 2.89509 36.0543 3.59835 36.7576C4.30161 37.4609 5.25544 37.856 6.25 37.856H16.9727V25.9567H12.0508V20.356H16.9727V16.0872C16.9727 11.2317 19.8633 8.54971 24.2906 8.54971C26.4109 8.54971 28.6281 8.92783 28.6281 8.92783V13.6935H26.1852C23.7781 13.6935 23.0273 15.1872 23.0273 16.7192V20.356H28.4008L27.5414 25.9567H23.0273V37.856H33.75C34.7446 37.856 35.6984 37.4609 36.4017 36.7576C37.1049 36.0543 37.5 35.1005 37.5 34.106V6.60596C37.5 5.6114 37.1049 4.65757 36.4017 3.95431C35.6984 3.25105 34.7446 2.85596 33.75 2.85596Z" fill="black"/>
</svg>
