<svg width="40" height="41" viewBox="0 0 40 41" fill="none" xmlns="http://www.w3.org/2000/svg">
<path d="M33.75 2.52295H6.25C5.25544 2.52295 4.30161 2.91804 3.59835 3.6213C2.89509 4.32456 2.5 5.27839 2.5 6.27295L2.5 33.7729C2.5 34.7675 2.89509 35.7213 3.59835 36.4246C4.30161 37.1279 5.25544 37.5229 6.25 37.5229H16.9727V25.6237H12.0508V20.0229H16.9727V15.7542C16.9727 10.8987 19.8633 8.2167 24.2906 8.2167C26.4109 8.2167 28.6281 8.59482 28.6281 8.59482V13.3604H26.1852C23.7781 13.3604 23.0273 14.8542 23.0273 16.3862V20.0229H28.4008L27.5414 25.6237H23.0273V37.5229H33.75C34.7446 37.5229 35.6984 37.1279 36.4016 36.4246C37.1049 35.7213 37.5 34.7675 37.5 33.7729V6.27295C37.5 5.27839 37.1049 4.32456 36.4016 3.6213C35.6984 2.91804 34.7446 2.52295 33.75 2.52295Z" fill="#08192D"/>
</svg>
