<svg width="40" height="41" viewBox="0 0 40 41" fill="none" xmlns="http://www.w3.org/2000/svg">
<path d="M20.0078 11.0386C15.0391 11.0386 11.0312 15.0464 11.0312 20.0151C11.0312 24.9839 15.0391 28.9917 20.0078 28.9917C24.9766 28.9917 28.9844 24.9839 28.9844 20.0151C28.9844 15.0464 24.9766 11.0386 20.0078 11.0386ZM20.0078 25.8511C16.7969 25.8511 14.1719 23.2339 14.1719 20.0151C14.1719 16.7964 16.7891 14.1792 20.0078 14.1792C23.2266 14.1792 25.8438 16.7964 25.8438 20.0151C25.8438 23.2339 23.2188 25.8511 20.0078 25.8511ZM31.4453 10.6714C31.4453 11.8354 30.5078 12.7651 29.3516 12.7651C28.1875 12.7651 27.2578 11.8276 27.2578 10.6714C27.2578 9.51514 28.1953 8.57764 29.3516 8.57764C30.5078 8.57764 31.4453 9.51514 31.4453 10.6714ZM37.3906 12.7964C37.2578 9.9917 36.6172 7.50732 34.5625 5.46045C32.5156 3.41357 30.0313 2.77295 27.2266 2.63232C24.3359 2.46826 15.6719 2.46826 12.7812 2.63232C9.98438 2.76514 7.5 3.40576 5.44531 5.45264C3.39063 7.49951 2.75781 9.98389 2.61719 12.7886C2.45312 15.6792 2.45312 24.3433 2.61719 27.2339C2.75 30.0386 3.39063 32.5229 5.44531 34.5698C7.5 36.6167 9.97656 37.2573 12.7812 37.3979C15.6719 37.562 24.3359 37.562 27.2266 37.3979C30.0313 37.2651 32.5156 36.6245 34.5625 34.5698C36.6094 32.5229 37.25 30.0386 37.3906 27.2339C37.5547 24.3433 37.5547 15.687 37.3906 12.7964ZM33.6562 30.3354C33.0469 31.8667 31.8672 33.0464 30.3281 33.6636C28.0234 34.5776 22.5547 34.3667 20.0078 34.3667C17.4609 34.3667 11.9844 34.5698 9.6875 33.6636C8.15625 33.0542 6.97656 31.8745 6.35938 30.3354C5.44531 28.0308 5.65625 22.562 5.65625 20.0151C5.65625 17.4683 5.45313 11.9917 6.35938 9.69482C6.96875 8.16357 8.14844 6.98389 9.6875 6.3667C11.9922 5.45264 17.4609 5.66357 20.0078 5.66357C22.5547 5.66357 28.0313 5.46045 30.3281 6.3667C31.8594 6.97607 33.0391 8.15576 33.6562 9.69482C34.5703 11.9995 34.3594 17.4683 34.3594 20.0151C34.3594 22.562 34.5703 28.0386 33.6562 30.3354Z" fill="#08192D"/>
</svg>
