<svg width="41" height="41" viewBox="0 0 41 41" fill="none" xmlns="http://www.w3.org/2000/svg">
<path d="M20.5078 11.8716C15.5391 11.8716 11.5312 15.8794 11.5312 20.8481C11.5312 25.8169 15.5391 29.8247 20.5078 29.8247C25.4766 29.8247 29.4844 25.8169 29.4844 20.8481C29.4844 15.8794 25.4766 11.8716 20.5078 11.8716ZM20.5078 26.6841C17.2969 26.6841 14.6719 24.0669 14.6719 20.8481C14.6719 17.6294 17.2891 15.0122 20.5078 15.0122C23.7266 15.0122 26.3438 17.6294 26.3438 20.8481C26.3438 24.0669 23.7188 26.6841 20.5078 26.6841ZM31.9453 11.5044C31.9453 12.6685 31.0078 13.5981 29.8516 13.5981C28.6875 13.5981 27.7578 12.6606 27.7578 11.5044C27.7578 10.3481 28.6953 9.41064 29.8516 9.41064C31.0078 9.41064 31.9453 10.3481 31.9453 11.5044ZM37.8906 13.6294C37.7578 10.8247 37.1172 8.34033 35.0625 6.29346C33.0156 4.24658 30.5313 3.60596 27.7266 3.46533C24.8359 3.30127 16.1719 3.30127 13.2813 3.46533C10.4844 3.59814 8 4.23877 5.94531 6.28564C3.89063 8.33252 3.25781 10.8169 3.11719 13.6216C2.95313 16.5122 2.95313 25.1763 3.11719 28.0669C3.25 30.8716 3.89063 33.356 5.94531 35.4028C8 37.4497 10.4766 38.0903 13.2813 38.231C16.1719 38.395 24.8359 38.395 27.7266 38.231C30.5313 38.0981 33.0156 37.4575 35.0625 35.4028C37.1094 33.356 37.75 30.8716 37.8906 28.0669C38.0547 25.1763 38.0547 16.52 37.8906 13.6294ZM34.1562 31.1685C33.5469 32.6997 32.3672 33.8794 30.8281 34.4966C28.5234 35.4106 23.0547 35.1997 20.5078 35.1997C17.9609 35.1997 12.4844 35.4028 10.1875 34.4966C8.65625 33.8872 7.47656 32.7075 6.85938 31.1685C5.94531 28.8638 6.15625 23.395 6.15625 20.8481C6.15625 18.3013 5.95313 12.8247 6.85938 10.5278C7.46875 8.99658 8.64844 7.81689 10.1875 7.19971C12.4922 6.28564 17.9609 6.49658 20.5078 6.49658C23.0547 6.49658 28.5313 6.29346 30.8281 7.19971C32.3594 7.80908 33.5391 8.98877 34.1562 10.5278C35.0703 12.8325 34.8594 18.3013 34.8594 20.8481C34.8594 23.395 35.0703 28.8716 34.1562 31.1685Z" fill="black"/>
</svg>
