<svg width="40" height="41" viewBox="0 0 40 41" fill="none" xmlns="http://www.w3.org/2000/svg">
<path d="M23.7578 16.3091V21.8638C23.7578 22.0044 23.6485 22.1138 23.5078 22.1138H22.6172C22.5313 22.1138 22.4531 22.0669 22.4141 22.0122L19.8672 18.5747V21.8716C19.8672 22.0122 19.7578 22.1216 19.6172 22.1216H18.7266C18.586 22.1216 18.4766 22.0122 18.4766 21.8716V16.3169C18.4766 16.1763 18.586 16.0669 18.7266 16.0669H19.6094C19.6875 16.0669 19.7735 16.106 19.8125 16.1763L22.3594 19.6138V16.3169C22.3594 16.1763 22.4688 16.0669 22.6094 16.0669H23.5C23.6406 16.0591 23.7578 16.1763 23.7578 16.3091ZM17.3516 16.0591H16.461C16.3203 16.0591 16.211 16.1685 16.211 16.3091V21.8638C16.211 22.0044 16.3203 22.1138 16.461 22.1138H17.3516C17.4922 22.1138 17.6016 22.0044 17.6016 21.8638V16.3091C17.6016 16.1763 17.4922 16.0591 17.3516 16.0591ZM15.2031 20.7153H12.7735V16.3091C12.7735 16.1685 12.6641 16.0591 12.5235 16.0591H11.6328C11.4922 16.0591 11.3828 16.1685 11.3828 16.3091V21.8638C11.3828 21.9341 11.4063 21.9888 11.4531 22.0357C11.5 22.0747 11.5547 22.106 11.625 22.106H15.1953C15.336 22.106 15.4453 21.9966 15.4453 21.856V20.9653C15.4453 20.8325 15.336 20.7153 15.2031 20.7153ZM28.4453 16.0591H24.875C24.7422 16.0591 24.625 16.1685 24.625 16.3091V21.8638C24.625 21.9966 24.7344 22.1138 24.875 22.1138H28.4453C28.586 22.1138 28.6953 22.0044 28.6953 21.8638V20.9732C28.6953 20.8325 28.586 20.7232 28.4453 20.7232H26.0156V19.7857H28.4453C28.586 19.7857 28.6953 19.6763 28.6953 19.5357V18.6372C28.6953 18.4966 28.586 18.3872 28.4453 18.3872H26.0156V17.4497H28.4453C28.586 17.4497 28.6953 17.3403 28.6953 17.1997V16.3091C28.6875 16.1763 28.5781 16.0591 28.4453 16.0591ZM37.5 9.23879V31.5278C37.4922 35.0278 34.625 37.8638 31.1172 37.856H8.82814C5.32814 37.8482 2.4922 34.9732 2.50002 31.4732V9.1841C2.50783 5.6841 5.38283 2.84816 8.88283 2.85597H31.1719C34.6719 2.86379 37.5078 5.73097 37.5 9.23879ZM32.6875 18.8169C32.6875 13.1138 26.9688 8.47316 19.9453 8.47316C12.9219 8.47316 7.20314 13.1138 7.20314 18.8169C7.20314 23.9263 11.7344 28.2075 17.8594 29.02C19.3516 29.3403 19.1797 29.8872 18.8438 31.895C18.7891 32.2153 18.586 33.1528 19.9453 32.5825C21.3047 32.0122 27.2813 28.2622 29.961 25.1841C31.8047 23.1528 32.6875 21.0982 32.6875 18.8169Z" fill="black"/>
</svg>
