<svg width="40" height="41" viewBox="0 0 40 41" fill="none" xmlns="http://www.w3.org/2000/svg">
<path d="M23.7578 15.9761V21.5308C23.7578 21.6714 23.6485 21.7808 23.5078 21.7808H22.6172C22.5313 21.7808 22.4531 21.7339 22.4141 21.6792L19.8672 18.2417V21.5386C19.8672 21.6792 19.7578 21.7886 19.6172 21.7886H18.7266C18.586 21.7886 18.4766 21.6792 18.4766 21.5386V15.9839C18.4766 15.8433 18.586 15.7339 18.7266 15.7339H19.6094C19.6875 15.7339 19.7735 15.773 19.8125 15.8433L22.3594 19.2808V15.9839C22.3594 15.8433 22.4688 15.7339 22.6094 15.7339H23.5C23.6406 15.7261 23.7578 15.8433 23.7578 15.9761ZM17.3516 15.7261H16.461C16.3203 15.7261 16.211 15.8355 16.211 15.9761V21.5308C16.211 21.6714 16.3203 21.7808 16.461 21.7808H17.3516C17.4922 21.7808 17.6016 21.6714 17.6016 21.5308V15.9761C17.6016 15.8433 17.4922 15.7261 17.3516 15.7261ZM15.2031 20.3823H12.7735V15.9761C12.7735 15.8355 12.6641 15.7261 12.5235 15.7261H11.6328C11.4922 15.7261 11.3828 15.8355 11.3828 15.9761V21.5308C11.3828 21.6011 11.4063 21.6558 11.4531 21.7027C11.5 21.7417 11.5547 21.773 11.625 21.773H15.1953C15.336 21.773 15.4453 21.6636 15.4453 21.523V20.6323C15.4453 20.4995 15.336 20.3823 15.2031 20.3823ZM28.4453 15.7261H24.875C24.7422 15.7261 24.625 15.8355 24.625 15.9761V21.5308C24.625 21.6636 24.7344 21.7808 24.875 21.7808H28.4453C28.586 21.7808 28.6953 21.6714 28.6953 21.5308V20.6402C28.6953 20.4995 28.586 20.3902 28.4453 20.3902H26.0156V19.4527H28.4453C28.586 19.4527 28.6953 19.3433 28.6953 19.2027V18.3042C28.6953 18.1636 28.586 18.0542 28.4453 18.0542H26.0156V17.1167H28.4453C28.586 17.1167 28.6953 17.0073 28.6953 16.8667V15.9761C28.6875 15.8433 28.5781 15.7261 28.4453 15.7261ZM37.5 8.90578V31.1948C37.4922 34.6948 34.625 37.5308 31.1172 37.523H8.82814C5.32814 37.5152 2.4922 34.6402 2.50002 31.1402V8.85109C2.50783 5.35109 5.38283 2.51515 8.88283 2.52297H31.1719C34.6719 2.53078 37.5078 5.39796 37.5 8.90578ZM32.6875 18.4839C32.6875 12.7808 26.9688 8.14015 19.9453 8.14015C12.9219 8.14015 7.20314 12.7808 7.20314 18.4839C7.20314 23.5933 11.7344 27.8745 17.8594 28.687C19.3516 29.0073 19.1797 29.5542 18.8438 31.562C18.7891 31.8823 18.586 32.8198 19.9453 32.2495C21.3047 31.6792 27.2813 27.9292 29.961 24.8511C31.8047 22.8198 32.6875 20.7652 32.6875 18.4839Z" fill="#08192D"/>
</svg>
