<svg width="25" height="25" viewBox="0 0 25 25" fill="none" xmlns="http://www.w3.org/2000/svg">
<path d="M20.2998 1.91675H3.7998C3.20307 1.91675 2.63077 2.1538 2.20881 2.57576C1.78686 2.99771 1.5498 3.57001 1.5498 4.16675L1.5498 20.6667C1.5498 21.2635 1.78686 21.8358 2.20881 22.2577C2.63077 22.6797 3.20307 22.9167 3.7998 22.9167H10.2334V15.7772H7.28027V12.4167H10.2334V9.8555C10.2334 6.94222 11.9678 5.333 14.6242 5.333C15.8964 5.333 17.2267 5.55987 17.2267 5.55987V8.41925H15.7609C14.3167 8.41925 13.8662 9.3155 13.8662 10.2347V12.4167H17.0903L16.5746 15.7772H13.8662V22.9167H20.2998C20.8965 22.9167 21.4688 22.6797 21.8908 22.2577C22.3128 21.8358 22.5498 21.2635 22.5498 20.6667V4.16675C22.5498 3.57001 22.3128 2.99771 21.8908 2.57576C21.4688 2.1538 20.8965 1.91675 20.2998 1.91675Z" fill="#222222"/>
</svg>
