<svg width="25" height="25" viewBox="0 0 25 25" fill="none" xmlns="http://www.w3.org/2000/svg">
<path d="M12.5546 7.52603C9.57334 7.52603 7.16865 9.93071 7.16865 12.912C7.16865 15.8932 9.57334 18.2979 12.5546 18.2979C15.5358 18.2979 17.9405 15.8932 17.9405 12.912C17.9405 9.93071 15.5358 7.52603 12.5546 7.52603ZM12.5546 16.4135C10.628 16.4135 9.05303 14.8432 9.05303 12.912C9.05303 10.9807 10.6233 9.4104 12.5546 9.4104C14.4858 9.4104 16.0562 10.9807 16.0562 12.912C16.0562 14.8432 14.4812 16.4135 12.5546 16.4135ZM19.4171 7.30571C19.4171 8.00415 18.8546 8.56196 18.1608 8.56196C17.4624 8.56196 16.9046 7.99946 16.9046 7.30571C16.9046 6.61196 17.4671 6.04946 18.1608 6.04946C18.8546 6.04946 19.4171 6.61196 19.4171 7.30571ZM22.9843 8.58071C22.9046 6.8979 22.5202 5.40728 21.2874 4.17915C20.0593 2.95103 18.5687 2.56665 16.8858 2.48228C15.1515 2.38384 9.95303 2.38384 8.21865 2.48228C6.54053 2.56196 5.0499 2.94634 3.81709 4.17446C2.58428 5.40259 2.20459 6.89321 2.12021 8.57603C2.02178 10.3104 2.02178 15.5088 2.12021 17.2432C2.1999 18.926 2.58428 20.4167 3.81709 21.6448C5.0499 22.8729 6.53584 23.2573 8.21865 23.3417C9.95303 23.4401 15.1515 23.4401 16.8858 23.3417C18.5687 23.262 20.0593 22.8776 21.2874 21.6448C22.5155 20.4167 22.8999 18.926 22.9843 17.2432C23.0827 15.5088 23.0827 10.3151 22.9843 8.58071ZM20.7437 19.1042C20.378 20.0229 19.6702 20.7307 18.7468 21.101C17.364 21.6495 14.0827 21.5229 12.5546 21.5229C11.0265 21.5229 7.74053 21.6448 6.3624 21.101C5.44365 20.7354 4.73584 20.0276 4.36553 19.1042C3.81709 17.7213 3.94365 14.4401 3.94365 12.912C3.94365 11.3838 3.82178 8.0979 4.36553 6.71978C4.73115 5.80103 5.43896 5.09321 6.3624 4.7229C7.74521 4.17446 11.0265 4.30103 12.5546 4.30103C14.0827 4.30103 17.3687 4.17915 18.7468 4.7229C19.6655 5.08853 20.3733 5.79634 20.7437 6.71978C21.2921 8.10259 21.1655 11.3838 21.1655 12.912C21.1655 14.4401 21.2921 17.726 20.7437 19.1042Z" fill="#222222"/>
</svg>
