<svg width="25" height="25" viewBox="0 0 25 25" fill="none" xmlns="http://www.w3.org/2000/svg">
<path d="M14.3045 9.98863V13.3214C14.3045 13.4058 14.2389 13.4714 14.1545 13.4714H13.6201C13.5686 13.4714 13.5217 13.4433 13.4983 13.4105L11.9701 11.348V13.3261C11.9701 13.4105 11.9045 13.4761 11.8201 13.4761H11.2858C11.2014 13.4761 11.1358 13.4105 11.1358 13.3261V9.99332C11.1358 9.90895 11.2014 9.84332 11.2858 9.84332H11.8154C11.8623 9.84332 11.9139 9.86676 11.9373 9.90895L13.4654 11.9714V9.99332C13.4654 9.90895 13.5311 9.84332 13.6154 9.84332H14.1498C14.2342 9.83863 14.3045 9.90895 14.3045 9.98863ZM10.4608 9.83863H9.92638C9.842 9.83863 9.77638 9.90426 9.77638 9.98863V13.3214C9.77638 13.4058 9.842 13.4714 9.92638 13.4714H10.4608C10.5451 13.4714 10.6108 13.4058 10.6108 13.3214V9.98863C10.6108 9.90895 10.5451 9.83863 10.4608 9.83863ZM9.17169 12.6324H7.71388V9.98863C7.71388 9.90426 7.64825 9.83863 7.56388 9.83863H7.0295C6.94513 9.83863 6.8795 9.90426 6.8795 9.98863V13.3214C6.8795 13.3636 6.89356 13.3964 6.92169 13.4246C6.94981 13.448 6.98263 13.4668 7.02481 13.4668H9.167C9.25138 13.4668 9.317 13.4011 9.317 13.3168V12.7824C9.317 12.7027 9.25138 12.6324 9.17169 12.6324ZM17.117 9.83863H14.9748C14.8951 9.83863 14.8248 9.90426 14.8248 9.98863V13.3214C14.8248 13.4011 14.8904 13.4714 14.9748 13.4714H17.117C17.2014 13.4714 17.267 13.4058 17.267 13.3214V12.7871C17.267 12.7027 17.2014 12.6371 17.117 12.6371H15.6592V12.0746H17.117C17.2014 12.0746 17.267 12.0089 17.267 11.9246V11.3855C17.267 11.3011 17.2014 11.2355 17.117 11.2355H15.6592V10.673H17.117C17.2014 10.673 17.267 10.6074 17.267 10.523V9.98863C17.2623 9.90895 17.1967 9.83863 17.117 9.83863ZM22.5498 5.74645V19.1199C22.5451 21.2199 20.8248 22.9214 18.7201 22.9168H5.34669C3.24669 22.9121 1.54513 21.1871 1.54981 19.0871V5.71363C1.5545 3.61363 3.2795 1.91207 5.3795 1.91676H18.7529C20.8529 1.92145 22.5545 3.64176 22.5498 5.74645ZM19.6623 11.4933C19.6623 8.07145 16.2311 5.28707 12.017 5.28707C7.80294 5.28707 4.37169 8.07145 4.37169 11.4933C4.37169 14.5589 7.09044 17.1277 10.7654 17.6152C11.6608 17.8074 11.5576 18.1355 11.3561 19.3402C11.3233 19.5324 11.2014 20.0949 12.017 19.7527C12.8326 19.4105 16.4186 17.1605 18.0264 15.3136C19.1326 14.0949 19.6623 12.8621 19.6623 11.4933Z" fill="#222222"/>
</svg>
