<svg width="24" height="25" viewBox="0 0 24 25" fill="none" xmlns="http://www.w3.org/2000/svg">
<g clip-path="url(#clip0_227_1317)">
<path d="M12 0.708374C5.57812 0.708374 0.375 5.9115 0.375 12.3334C0.375 18.7552 5.57812 23.9584 12 23.9584C18.4219 23.9584 23.625 18.7552 23.625 12.3334C23.625 5.9115 18.4219 0.708374 12 0.708374ZM5.8125 14.2084C5.50313 14.2084 5.25 13.9552 5.25 13.6459V11.0209C5.25 10.7115 5.50313 10.4584 5.8125 10.4584H18.1875C18.4969 10.4584 18.75 10.7115 18.75 11.0209V13.6459C18.75 13.9552 18.4969 14.2084 18.1875 14.2084H5.8125Z" fill="white"/>
</g>
<defs>
<clipPath id="clip0_227_1317">
<rect width="24" height="24" fill="white" transform="translate(0 0.333374)"/>
</clipPath>
</defs>
</svg>
