<svg width="24" height="25" viewBox="0 0 24 25" fill="none" xmlns="http://www.w3.org/2000/svg">
<g clip-path="url(#clip0_227_1318)">
<path d="M12 0.708374C5.57812 0.708374 0.375 5.9115 0.375 12.3334C0.375 18.7552 5.57812 23.9584 12 23.9584C18.4219 23.9584 23.625 18.7552 23.625 12.3334C23.625 5.9115 18.4219 0.708374 12 0.708374ZM18.75 13.6459C18.75 13.9552 18.4969 14.2084 18.1875 14.2084H13.875V18.5209C13.875 18.8302 13.6219 19.0834 13.3125 19.0834H10.6875C10.3781 19.0834 10.125 18.8302 10.125 18.5209V14.2084H5.8125C5.50313 14.2084 5.25 13.9552 5.25 13.6459V11.0209C5.25 10.7115 5.50313 10.4584 5.8125 10.4584H10.125V6.14587C10.125 5.8365 10.3781 5.58337 10.6875 5.58337H13.3125C13.6219 5.58337 13.875 5.8365 13.875 6.14587V10.4584H18.1875C18.4969 10.4584 18.75 10.7115 18.75 11.0209V13.6459Z" fill="white"/>
</g>
<defs>
<clipPath id="clip0_227_1318">
<rect width="24" height="24" fill="white" transform="translate(0 0.333374)"/>
</clipPath>
</defs>
</svg>
