<svg width="61" height="60" viewBox="0 0 61 60" fill="none" xmlns="http://www.w3.org/2000/svg">
<g clip-path="url(#clip0_209_922)">
<path d="M15.9668 47.5C15.9668 48.8261 16.4936 50.0979 17.4313 51.0355C18.3689 51.9732 19.6407 52.5 20.9668 52.5C22.2929 52.5 23.5646 51.9732 24.5023 51.0355C25.44 50.0979 25.9668 48.8261 25.9668 47.5C25.9668 46.1739 25.44 44.9021 24.5023 43.9645C23.5646 43.0268 22.2929 42.5 20.9668 42.5C19.6407 42.5 18.3689 43.0268 17.4313 43.9645C16.4936 44.9021 15.9668 46.1739 15.9668 47.5Z" stroke="#08192D" stroke-width="2.75" stroke-linecap="round" stroke-linejoin="round"/>
<path d="M40.9668 47.5C40.9668 48.8261 41.4936 50.0979 42.4313 51.0355C43.3689 51.9732 44.6407 52.5 45.9668 52.5C47.2929 52.5 48.5646 51.9732 49.5023 51.0355C50.44 50.0979 50.9668 48.8261 50.9668 47.5C50.9668 46.1739 50.44 44.9021 49.5023 43.9645C48.5646 43.0268 47.2929 42.5 45.9668 42.5C44.6407 42.5 43.3689 43.0268 42.4313 43.9645C41.4936 44.9021 40.9668 46.1739 40.9668 47.5Z" stroke="#08192D" stroke-width="2.75" stroke-linecap="round" stroke-linejoin="round"/>
<path d="M5.9668 12.5H12.2168L16.2968 24.7425C17.2923 27.7297 19.2026 30.3279 21.7571 32.1689C24.3115 34.0099 27.3806 35.0004 30.5293 35H37.2168C40.8635 35 44.3609 33.5513 46.9395 30.9727C49.5181 28.3941 50.9668 24.8967 50.9668 21.25C50.9668 17.6033 49.5181 14.1059 46.9395 11.5273C44.3609 8.94866 40.8635 7.5 37.2168 7.5H35.9668V22.5" stroke="#08192D" stroke-width="2.75" stroke-linecap="round" stroke-linejoin="round"/>
<path d="M15.9668 22.5H50.9668" stroke="#08192D" stroke-width="2.75" stroke-linecap="round" stroke-linejoin="round"/>
<path d="M23.4668 42.5L25.9668 35" stroke="#08192D" stroke-width="2.75" stroke-linecap="round" stroke-linejoin="round"/>
<path d="M40.9668 35L43.4668 42.5" stroke="#08192D" stroke-width="2.75" stroke-linecap="round" stroke-linejoin="round"/>
</g>
<defs>
<clipPath id="clip0_209_922">
<rect width="60" height="60" fill="white" transform="translate(0.966797)"/>
</clipPath>
</defs>
</svg>
