<svg width="60" height="61" viewBox="0 0 60 61" fill="none" xmlns="http://www.w3.org/2000/svg">
<g clip-path="url(#clip0_209_945)">
<path d="M25 12.8208H35V7.8208C35 7.15776 34.7366 6.52187 34.2678 6.05303C33.7989 5.58419 33.163 5.3208 32.5 5.3208H27.5C26.837 5.3208 26.2011 5.58419 25.7322 6.05303C25.2634 6.52187 25 7.15776 25 7.8208V12.8208Z" stroke="#08192D" stroke-width="2.75" stroke-linecap="round" stroke-linejoin="round"/>
<path d="M35 9.0708C35 13.1358 36.2675 17.1008 38.625 20.4133L38.75 20.5883C41.1895 24.015 42.5003 28.1169 42.5 32.3233V47.8208C42.5 49.1469 41.9732 50.4187 41.0355 51.3563C40.0979 52.294 38.8261 52.8208 37.5 52.8208H22.5C21.1739 52.8208 19.9021 52.294 18.9645 51.3563C18.0268 50.4187 17.5 49.1469 17.5 47.8208V32.3208C17.5 28.1158 18.81 24.0158 21.25 20.5883L21.375 20.4133C23.7329 17.1012 25 13.1365 25 9.0708" stroke="#08192D" stroke-width="2.75" stroke-linecap="round" stroke-linejoin="round"/>
<path d="M17.5 37.3283C18.5 36.8983 19.3642 36.2043 20 35.3208C20.5679 34.5295 21.3199 33.8885 22.1911 33.4529C23.0622 33.0173 24.0263 32.8004 25 32.8208C25.9737 32.8004 26.9378 33.0173 27.8089 33.4529C28.6801 33.8885 29.4321 34.5295 30 35.3208C30.5679 36.112 31.3199 36.7531 32.1911 37.1887C33.0622 37.6242 34.0263 37.8412 35 37.8208C35.9737 37.8412 36.9378 37.6242 37.8089 37.1887C38.6801 36.7531 39.4321 36.112 40 35.3208C40.6351 34.4354 41.4994 33.7397 42.5 33.3083" stroke="#08192D" stroke-width="2.75" stroke-linecap="round" stroke-linejoin="round"/>
</g>
<defs>
<clipPath id="clip0_209_945">
<rect width="60" height="60" fill="white" transform="translate(0 0.320801)"/>
</clipPath>
</defs>
</svg>
