<svg width="60" height="61" viewBox="0 0 60 61" fill="none" xmlns="http://www.w3.org/2000/svg">
<g clip-path="url(#clip0_209_927)">
<path d="M12.5 17.572H15C16.3261 17.572 17.5979 17.0452 18.5355 16.1076C19.4732 15.1699 20 13.8981 20 12.572C20 11.909 20.2634 11.2731 20.7322 10.8043C21.2011 10.3354 21.837 10.072 22.5 10.072H37.5C38.163 10.072 38.7989 10.3354 39.2678 10.8043C39.7366 11.2731 40 11.909 40 12.572C40 13.8981 40.5268 15.1699 41.4645 16.1076C42.4021 17.0452 43.6739 17.572 45 17.572H47.5C48.8261 17.572 50.0979 18.0988 51.0355 19.0365C51.9732 19.9742 52.5 21.2459 52.5 22.572V45.072C52.5 46.3981 51.9732 47.6699 51.0355 48.6076C50.0979 49.5452 48.8261 50.072 47.5 50.072H12.5C11.1739 50.072 9.90215 49.5452 8.96447 48.6076C8.02678 47.6699 7.5 46.3981 7.5 45.072V22.572C7.5 21.2459 8.02678 19.9742 8.96447 19.0365C9.90215 18.0988 11.1739 17.572 12.5 17.572Z" stroke="#08192D" stroke-width="2.75" stroke-linecap="round" stroke-linejoin="round"/>
<path d="M22.5 32.572C22.5 34.5611 23.2902 36.4688 24.6967 37.8753C26.1032 39.2818 28.0109 40.072 30 40.072C31.9891 40.072 33.8968 39.2818 35.3033 37.8753C36.7098 36.4688 37.5 34.5611 37.5 32.572C37.5 30.5829 36.7098 28.6752 35.3033 27.2687C33.8968 25.8622 31.9891 25.072 30 25.072C28.0109 25.072 26.1032 25.8622 24.6967 27.2687C23.2902 28.6752 22.5 30.5829 22.5 32.572Z" stroke="#08192D" stroke-width="2.75" stroke-linecap="round" stroke-linejoin="round"/>
</g>
<defs>
<clipPath id="clip0_209_927">
<rect width="60" height="60" fill="white" transform="translate(0 0.0720215)"/>
</clipPath>
</defs>
</svg>
