<svg width="61" height="61" viewBox="0 0 61 61" fill="none" xmlns="http://www.w3.org/2000/svg">
<g clip-path="url(#clip0_804_3669)">
<path d="M13 42.894C13 44.2201 13.5268 45.4919 14.4645 46.4296C15.4021 47.3673 16.6739 47.894 18 47.894C19.3261 47.894 20.5979 47.3673 21.5355 46.4296C22.4732 45.4919 23 44.2201 23 42.894C23 41.568 22.4732 40.2962 21.5355 39.3585C20.5979 38.4208 19.3261 37.894 18 37.894C16.6739 37.894 15.4021 38.4208 14.4645 39.3585C13.5268 40.2962 13 41.568 13 42.894Z" stroke="#FCFAF2" stroke-width="1.66667" stroke-linecap="round" stroke-linejoin="round"/>
<path d="M38 42.894C38 44.2201 38.5268 45.4919 39.4645 46.4296C40.4021 47.3673 41.6739 47.894 43 47.894C44.3261 47.894 45.5979 47.3673 46.5355 46.4296C47.4732 45.4919 48 44.2201 48 42.894C48 41.568 47.4732 40.2962 46.5355 39.3585C45.5979 38.4208 44.3261 37.894 43 37.894C41.6739 37.894 40.4021 38.4208 39.4645 39.3585C38.5268 40.2962 38 41.568 38 42.894Z" stroke="#FCFAF2" stroke-width="1.66667" stroke-linecap="round" stroke-linejoin="round"/>
<path d="M13 42.894H8V27.894M8 27.894L13 15.394H35.5L45.5 27.894M8 27.894H45.5M45.5 27.894H48C49.3261 27.894 50.5979 28.4208 51.5355 29.3585C52.4732 30.2962 53 31.568 53 32.894V42.894H48M38 42.894H23M30.5 27.894V15.394" stroke="#FCFAF2" stroke-width="1.66667" stroke-linecap="round" stroke-linejoin="round"/>
</g>
<defs>
<clipPath id="clip0_804_3669">
<rect width="60" height="60" fill="white" transform="translate(0.5 0.394043)"/>
</clipPath>
</defs>
</svg>
