<svg width="60" height="61" viewBox="0 0 60 61" fill="none" xmlns="http://www.w3.org/2000/svg">
<g clip-path="url(#clip0_805_3699)">
<path d="M42.5001 11.75C45.0177 13.4287 47.1708 15.598 48.8306 18.1281C50.4904 20.6582 51.6228 23.4971 52.1601 26.475C53.0956 27.0799 53.8525 27.9239 54.3522 28.9196C54.852 29.9154 55.0766 31.0265 55.0026 32.1382C54.9287 33.2498 54.559 34.3215 53.9317 35.2422C53.3045 36.163 52.4425 36.8993 51.4351 37.375C49.9776 41.9106 47.1182 45.8666 43.2685 48.6731C39.4189 51.4795 34.7778 52.9917 30.0138 52.9917C25.2498 52.9917 20.6087 51.4795 16.7591 48.6731C12.9095 45.8666 10.05 41.9106 8.59257 37.375C7.58514 36.8993 6.72318 36.163 6.09593 35.2422C5.46869 34.3215 5.09895 33.2498 5.02501 32.1382C4.95107 31.0265 5.17562 29.9154 5.6754 28.9196C6.17518 27.9239 6.93202 27.0799 7.86757 26.475C8.39417 23.5562 9.49267 20.7702 11.0999 18.2775C12.7071 15.7847 14.7913 13.6343 17.2326 11.95" stroke="#08192D" stroke-width="1.66667" stroke-linecap="round" stroke-linejoin="round"/>
<path d="M23.75 40.5C24.5647 41.3315 25.5371 41.9921 26.6103 42.443C27.6835 42.894 28.8359 43.1263 30 43.1263C31.1641 43.1263 32.3165 42.894 33.3897 42.443C34.4629 41.9921 35.4353 41.3315 36.25 40.5" stroke="#08192D" stroke-width="1.66667" stroke-linecap="round" stroke-linejoin="round"/>
<path d="M21.25 5.5C25 8 27.5 14.25 27.5 18" stroke="#08192D" stroke-width="1.66667" stroke-linecap="round" stroke-linejoin="round"/>
<path d="M31.25 5.5C35 10.5 36.25 14.25 36.25 18" stroke="#08192D" stroke-width="1.66667" stroke-linecap="round" stroke-linejoin="round"/>
<path d="M22.5 30.5H22.525" stroke="#08192D" stroke-width="1.66667" stroke-linecap="round" stroke-linejoin="round"/>
<path d="M37.5 30.5H37.525" stroke="#08192D" stroke-width="1.66667" stroke-linecap="round" stroke-linejoin="round"/>
</g>
<defs>
<clipPath id="clip0_805_3699">
<rect width="60" height="60" fill="white" transform="translate(0 0.5)"/>
</clipPath>
</defs>
</svg>
