<svg width="60" height="61" viewBox="0 0 60 61" fill="none" xmlns="http://www.w3.org/2000/svg">
<g clip-path="url(#clip0_209_913)">
<path d="M35 15.928C35 14.6019 34.4732 13.3301 33.5355 12.3924C32.5978 11.4548 31.3261 10.928 30 10.928C28.6739 10.928 27.4021 11.4548 26.4644 12.3924C25.5268 13.3301 25 14.6019 25 15.928C25 20.0955 26.675 23.428 30 25.928H29.98M29.98 25.928L49.9075 36.998C50.6873 37.4311 51.3371 38.0649 51.7895 38.8337C52.2418 39.6026 52.4802 40.4784 52.48 41.3705V43.428C52.48 44.7541 51.9532 46.0258 51.0155 46.9635C50.0778 47.9012 48.8061 48.428 47.48 48.428H12.48C11.1539 48.428 9.88213 47.9012 8.94445 46.9635C8.00676 46.0258 7.47998 44.7541 7.47998 43.428V41.3705C7.47975 40.4784 7.71816 39.6026 8.1705 38.8337C8.62284 38.0649 9.27263 37.4311 10.0525 36.998L29.98 25.928Z" stroke="#08192D" stroke-width="2.75" stroke-linecap="round" stroke-linejoin="round"/>
</g>
<defs>
<clipPath id="clip0_209_913">
<rect width="60" height="60" fill="white" transform="translate(0 0.927979)"/>
</clipPath>
</defs>
</svg>
