<svg width="60" height="61" viewBox="0 0 60 61" fill="none" xmlns="http://www.w3.org/2000/svg">
<g clip-path="url(#clip0_209_959)">
<path d="M15 25.5C14.9979 22.8022 15.6195 20.1404 16.8163 17.7226C18.0131 15.3048 19.7527 13.1964 21.8992 11.5622C24.0457 9.92801 26.541 8.8122 29.1901 8.30194C31.8392 7.79169 34.5704 7.90082 37.1704 8.62081C39.7703 9.3408 42.1686 10.6521 44.1779 12.4524C46.1872 14.2527 47.753 16.4931 48.7531 18.9987C49.7532 21.5043 50.1605 24.2071 49.9431 26.8962C49.7257 29.5852 48.8896 32.1876 47.5 34.5C46.0786 36.3951 44.3951 38.0786 42.5 39.5C40.2843 41.5869 38.5743 44.1521 37.5 47C36.7242 48.466 35.6338 49.7424 34.307 50.7377C32.9801 51.733 31.4496 52.4225 29.825 52.757C28.2004 53.0915 26.5219 53.0626 24.9098 52.6724C23.2977 52.2822 21.7918 51.5403 20.5 50.5" stroke="#08192D" stroke-width="2.75" stroke-linecap="round" stroke-linejoin="round"/>
<path d="M25 25.5C24.985 24.2452 25.2851 23.0068 25.8727 21.8981C26.4603 20.7894 27.3167 19.8458 28.3635 19.1538C29.4103 18.4618 30.6139 18.0435 31.8642 17.9372C33.1145 17.8309 34.3715 18.0401 35.5201 18.5454C36.6686 19.0508 37.672 19.8362 38.4383 20.8299C39.2047 21.8235 39.7095 22.9935 39.9065 24.2327C40.1035 25.472 39.9864 26.7409 39.566 27.9231C39.1456 29.1054 38.4353 30.1633 37.5 31" stroke="#08192D" stroke-width="2.75" stroke-linecap="round" stroke-linejoin="round"/>
</g>
<defs>
<clipPath id="clip0_209_959">
<rect width="60" height="60" fill="white" transform="translate(0 0.5)"/>
</clipPath>
</defs>
</svg>
