<svg width="60" height="60" viewBox="0 0 60 60" fill="none" xmlns="http://www.w3.org/2000/svg">
<g clip-path="url(#clip0_804_3631)">
<path d="M7.5 30C7.5 32.9547 8.08198 35.8806 9.21271 38.6104C10.3434 41.3402 12.0008 43.8206 14.0901 45.9099C16.1794 47.9992 18.6598 49.6566 21.3896 50.7873C24.1194 51.918 27.0453 52.5 30 52.5C32.9547 52.5 35.8806 51.918 38.6104 50.7873C41.3402 49.6566 43.8206 47.9992 45.9099 45.9099C47.9992 43.8206 49.6566 41.3402 50.7873 38.6104C51.918 35.8806 52.5 32.9547 52.5 30C52.5 27.0453 51.918 24.1194 50.7873 21.3896C49.6566 18.6598 47.9992 16.1794 45.9099 14.0901C43.8206 12.0008 41.3402 10.3434 38.6104 9.21271C35.8806 8.08198 32.9547 7.5 30 7.5C27.0453 7.5 24.1194 8.08198 21.3896 9.21271C18.6598 10.3434 16.1794 12.0008 14.0901 14.0901C12.0008 16.1794 10.3434 18.6598 9.21271 21.3896C8.08198 24.1194 7.5 27.0453 7.5 30Z" stroke="#08192D" stroke-width="1.67" stroke-linecap="round" stroke-linejoin="round"/>
<path d="M22.5 25H22.525" stroke="#08192D" stroke-width="1.67" stroke-linecap="round" stroke-linejoin="round"/>
<path d="M37.5 25H37.525" stroke="#08192D" stroke-width="1.67" stroke-linecap="round" stroke-linejoin="round"/>
<path d="M23.75 37.5C24.5647 38.3315 25.5371 38.9921 26.6103 39.443C27.6835 39.894 28.8359 40.1263 30 40.1263C31.1641 40.1263 32.3165 39.894 33.3897 39.443C34.4629 38.9921 35.4353 38.3315 36.25 37.5" stroke="#08192D" stroke-width="1.67" stroke-linecap="round" stroke-linejoin="round"/>
<path d="M30 7.5C28.6739 7.5 27.4021 8.02678 26.4645 8.96447C25.5268 9.90215 25 11.1739 25 12.5C25 13.8261 25.5268 15.0979 26.4645 16.0355C27.4021 16.9732 28.6739 17.5 30 17.5" stroke="#08192D" stroke-width="1.67" stroke-linecap="round" stroke-linejoin="round"/>
</g>
<defs>
<clipPath id="clip0_804_3631">
<rect width="60" height="60" fill="white"/>
</clipPath>
</defs>
</svg>
