<svg width="81" height="81" viewBox="0 0 81 81" fill="none" xmlns="http://www.w3.org/2000/svg">
<g clip-path="url(#clip0_216_902)">
<path d="M76.375 20.9167H75.125V13.4167C75.125 6.41675 59.625 0.916748 40.125 0.916748C20.625 0.916748 5.125 6.41675 5.125 13.4167V20.9167H3.875C1.80469 20.9167 0.125 22.5949 0.125 24.6667V37.1667C0.125 39.2371 1.80469 40.9167 3.875 40.9167H5.125V65.9167C5.125 68.6777 7.36406 70.9167 10.125 70.9167V75.9167C10.125 78.6777 12.3641 80.9167 15.125 80.9167H20.125C22.8859 80.9167 25.125 78.6777 25.125 75.9167V70.9167H55.125V75.9167C55.125 78.6777 57.3641 80.9167 60.125 80.9167H65.125C67.8859 80.9167 70.125 78.6777 70.125 75.9167V70.9167H71.125C73.625 70.9167 75.125 68.9167 75.125 66.9167V40.9167H76.375C78.4453 40.9167 80.125 39.2371 80.125 37.1667V24.6667C80.125 22.5949 78.4453 20.9167 76.375 20.9167ZM17.625 63.4167C14.8641 63.4167 12.625 61.1777 12.625 58.4167C12.625 55.6558 14.8641 53.4167 17.625 53.4167C20.3859 53.4167 22.625 55.6558 22.625 58.4167C22.625 61.1777 20.3859 63.4167 17.625 63.4167ZM20.125 45.9167C17.3641 45.9167 15.125 43.6777 15.125 40.9167V20.9167C15.125 18.1558 17.3641 15.9167 20.125 15.9167H60.125C62.8859 15.9167 65.125 18.1558 65.125 20.9167V40.9167C65.125 43.6777 62.8859 45.9167 60.125 45.9167H20.125ZM62.625 63.4167C59.8641 63.4167 57.625 61.1777 57.625 58.4167C57.625 55.6558 59.8641 53.4167 62.625 53.4167C65.3859 53.4167 67.625 55.6558 67.625 58.4167C67.625 61.1777 65.3859 63.4167 62.625 63.4167Z" fill="black"/>
</g>
<defs>
<clipPath id="clip0_216_902">
<rect width="80" height="80" fill="white" transform="translate(0.125 0.916748)"/>
</clipPath>
</defs>
</svg>
