<svg width="81" height="81" viewBox="0 0 81 81" fill="none" xmlns="http://www.w3.org/2000/svg">
<g clip-path="url(#clip0_175_768)">
<path d="M78.9984 27.7422H69.6437L67.0437 21.2422C64.3718 14.5594 57.9952 10.2422 50.7968 10.2422H30.953C23.7562 10.2422 17.378 14.5594 14.7046 21.2422L12.1046 27.7422H2.75148C1.53117 27.7422 0.635858 28.8891 0.932733 30.0719L1.87023 33.8219C2.07805 34.6563 2.82805 35.2422 3.68898 35.2422H6.82492C4.72648 37.075 3.37492 39.7391 3.37492 42.7422V50.2422C3.37492 52.7609 4.33742 55.0344 5.87492 56.7937V65.2422C5.87492 68.0031 8.11398 70.2422 10.8749 70.2422H15.8749C18.6359 70.2422 20.8749 68.0031 20.8749 65.2422V60.2422H60.8749V65.2422C60.8749 68.0031 63.114 70.2422 65.8749 70.2422H70.8749C73.6359 70.2422 75.8749 68.0031 75.8749 65.2422V56.7937C77.4124 55.0359 78.3749 52.7625 78.3749 50.2422V42.7422C78.3749 39.7391 77.0234 37.075 74.9265 35.2422H78.0624C78.9234 35.2422 79.6734 34.6563 79.8812 33.8219L80.8187 30.0719C81.114 28.8891 80.2187 27.7422 78.9984 27.7422ZM23.989 24.9562C25.128 22.1094 27.8859 20.2422 30.953 20.2422H50.7968C53.864 20.2422 56.6218 22.1094 57.7609 24.9562L60.8749 32.7422H20.8749L23.989 24.9562ZM15.8749 50.2109C12.8749 50.2109 10.8749 48.2172 10.8749 45.2266C10.8749 42.2359 12.8749 40.2422 15.8749 40.2422C18.8749 40.2422 23.3749 44.7281 23.3749 47.7188C23.3749 50.7094 18.8749 50.2109 15.8749 50.2109ZM65.8749 50.2109C62.8749 50.2109 58.3749 50.7094 58.3749 47.7188C58.3749 44.7281 62.8749 40.2422 65.8749 40.2422C68.8749 40.2422 70.8749 42.2359 70.8749 45.2266C70.8749 48.2172 68.8749 50.2109 65.8749 50.2109Z" fill="black"/>
</g>
<defs>
<clipPath id="clip0_175_768">
<rect width="80" height="80" fill="white" transform="translate(0.875 0.242188)"/>
</clipPath>
</defs>
</svg>
