<svg width="80" height="81" viewBox="0 0 80 81" fill="none" xmlns="http://www.w3.org/2000/svg">
<g clip-path="url(#clip0_175_769)">
<path d="M75 15.2422V55.2422C75 63.3383 65.3712 70.2422 54.6841 70.2422L64.5247 78.0111C65.4539 78.7448 64.9316 80.2422 63.75 80.2422H16.25C15.0659 80.2422 14.5481 78.7431 15.4755 78.0111L25.3159 70.2422C14.6594 70.2422 5 63.36 5 55.2422V15.2422C5 6.95797 15 0.242188 25 0.242188H55C65.1562 0.242188 75 6.95797 75 15.2422ZM36.25 36.4922V18.9922C36.25 16.9211 34.5711 15.2422 32.5 15.2422H16.25C14.1789 15.2422 12.5 16.9211 12.5 18.9922V36.4922C12.5 38.5633 14.1789 40.2422 16.25 40.2422H32.5C34.5711 40.2422 36.25 38.5633 36.25 36.4922ZM67.5 36.4922V18.9922C67.5 16.9211 65.8211 15.2422 63.75 15.2422H47.5C45.4289 15.2422 43.75 16.9211 43.75 18.9922V36.4922C43.75 38.5633 45.4289 40.2422 47.5 40.2422H63.75C65.8211 40.2422 67.5 38.5633 67.5 36.4922ZM60 45.2422C55.8578 45.2422 52.5 48.6 52.5 52.7422C52.5 56.8844 55.8578 60.2422 60 60.2422C64.1422 60.2422 67.5 56.8844 67.5 52.7422C67.5 48.6 64.1422 45.2422 60 45.2422ZM20 45.2422C15.8578 45.2422 12.5 48.6 12.5 52.7422C12.5 56.8844 15.8578 60.2422 20 60.2422C24.1422 60.2422 27.5 56.8844 27.5 52.7422C27.5 48.6 24.1422 45.2422 20 45.2422Z" fill="black"/>
</g>
<defs>
<clipPath id="clip0_175_769">
<rect width="80" height="80" fill="white" transform="translate(0 0.242188)"/>
</clipPath>
</defs>
</svg>
