<svg width="33" height="33" viewBox="0 0 33 33" fill="none" xmlns="http://www.w3.org/2000/svg">
<path d="M27.0498 2.41675H5.0498C4.25416 2.41675 3.49109 2.73282 2.92848 3.29543C2.36588 3.85804 2.0498 4.6211 2.0498 5.41675L2.0498 27.4167C2.0498 28.2124 2.36588 28.9755 2.92848 29.5381C3.49109 30.1007 4.25416 30.4167 5.0498 30.4167H13.6279V20.8974H9.69043V16.4167H13.6279V13.0017C13.6279 9.11737 15.9404 6.97175 19.4823 6.97175C21.1786 6.97175 22.9523 7.27425 22.9523 7.27425V11.0867H20.9979C19.0723 11.0867 18.4717 12.2817 18.4717 13.5074V16.4167H22.7704L22.0829 20.8974H18.4717V30.4167H27.0498C27.8455 30.4167 28.6085 30.1007 29.1711 29.5381C29.7337 28.9755 30.0498 28.2124 30.0498 27.4167V5.41675C30.0498 4.6211 29.7337 3.85804 29.1711 3.29543C28.6085 2.73282 27.8455 2.41675 27.0498 2.41675Z" fill="#222222"/>
</svg>
