<svg width="33" height="33" viewBox="0 0 33 33" fill="none" xmlns="http://www.w3.org/2000/svg">
<path d="M16.5559 9.7292C12.5809 9.7292 9.37461 12.9354 9.37461 16.9104C9.37461 20.8854 12.5809 24.0917 16.5559 24.0917C20.5309 24.0917 23.7371 20.8854 23.7371 16.9104C23.7371 12.9354 20.5309 9.7292 16.5559 9.7292ZM16.5559 21.5792C13.9871 21.5792 11.8871 19.4854 11.8871 16.9104C11.8871 14.3354 13.9809 12.2417 16.5559 12.2417C19.1309 12.2417 21.2246 14.3354 21.2246 16.9104C21.2246 19.4854 19.1246 21.5792 16.5559 21.5792ZM25.7059 9.43545C25.7059 10.3667 24.9559 11.1104 24.0309 11.1104C23.0996 11.1104 22.3559 10.3604 22.3559 9.43545C22.3559 8.51045 23.1059 7.76045 24.0309 7.76045C24.9559 7.76045 25.7059 8.51045 25.7059 9.43545ZM30.4621 11.1354C30.3559 8.8917 29.8434 6.9042 28.1996 5.2667C26.5621 3.6292 24.5746 3.1167 22.3309 3.0042C20.0184 2.87295 13.0871 2.87295 10.7746 3.0042C8.53711 3.11045 6.54961 3.62295 4.90586 5.26045C3.26211 6.89795 2.75586 8.88545 2.64336 11.1292C2.51211 13.4417 2.51211 20.3729 2.64336 22.6854C2.74961 24.9292 3.26211 26.9167 4.90586 28.5542C6.54961 30.1917 8.53086 30.7042 10.7746 30.8167C13.0871 30.9479 20.0184 30.9479 22.3309 30.8167C24.5746 30.7104 26.5621 30.1979 28.1996 28.5542C29.8371 26.9167 30.3496 24.9292 30.4621 22.6854C30.5934 20.3729 30.5934 13.4479 30.4621 11.1354ZM27.4746 25.1667C26.9871 26.3917 26.0434 27.3354 24.8121 27.8292C22.9684 28.5604 18.5934 28.3917 16.5559 28.3917C14.5184 28.3917 10.1371 28.5542 8.29961 27.8292C7.07461 27.3417 6.13086 26.3979 5.63711 25.1667C4.90586 23.3229 5.07461 18.9479 5.07461 16.9104C5.07461 14.8729 4.91211 10.4917 5.63711 8.6542C6.12461 7.4292 7.06836 6.48545 8.29961 5.9917C10.1434 5.26045 14.5184 5.4292 16.5559 5.4292C18.5934 5.4292 22.9746 5.2667 24.8121 5.9917C26.0371 6.4792 26.9809 7.42295 27.4746 8.6542C28.2059 10.4979 28.0371 14.8729 28.0371 16.9104C28.0371 18.9479 28.2059 23.3292 27.4746 25.1667Z" fill="#222222"/>
</svg>
