<svg width="33" height="33" viewBox="0 0 33 33" fill="none" xmlns="http://www.w3.org/2000/svg">
<path d="M19.0561 13.1793V17.623C19.0561 17.7355 18.9686 17.823 18.8561 17.823H18.1436C18.0748 17.823 18.0123 17.7855 17.9811 17.7418L15.9436 14.9918V17.6293C15.9436 17.7418 15.8561 17.8293 15.7436 17.8293H15.0311C14.9186 17.8293 14.8311 17.7418 14.8311 17.6293V13.1855C14.8311 13.073 14.9186 12.9855 15.0311 12.9855H15.7373C15.7998 12.9855 15.8686 13.0168 15.8998 13.073L17.9373 15.823V13.1855C17.9373 13.073 18.0248 12.9855 18.1373 12.9855H18.8498C18.9623 12.9793 19.0561 13.073 19.0561 13.1793ZM13.9311 12.9793H13.2186C13.1061 12.9793 13.0186 13.0668 13.0186 13.1793V17.623C13.0186 17.7355 13.1061 17.823 13.2186 17.823H13.9311C14.0436 17.823 14.1311 17.7355 14.1311 17.623V13.1793C14.1311 13.073 14.0436 12.9793 13.9311 12.9793ZM12.2123 16.7043H10.2686V13.1793C10.2686 13.0668 10.1811 12.9793 10.0686 12.9793H9.35607C9.24357 12.9793 9.15607 13.0668 9.15607 13.1793V17.623C9.15607 17.6793 9.17482 17.723 9.21232 17.7605C9.24982 17.7918 9.29357 17.8168 9.34982 17.8168H12.2061C12.3186 17.8168 12.4061 17.7293 12.4061 17.6168V16.9043C12.4061 16.798 12.3186 16.7043 12.2123 16.7043ZM22.8061 12.9793H19.9498C19.8436 12.9793 19.7498 13.0668 19.7498 13.1793V17.623C19.7498 17.7293 19.8373 17.823 19.9498 17.823H22.8061C22.9186 17.823 23.0061 17.7355 23.0061 17.623V16.9105C23.0061 16.798 22.9186 16.7105 22.8061 16.7105H20.8623V15.9605H22.8061C22.9186 15.9605 23.0061 15.873 23.0061 15.7605V15.0418C23.0061 14.9293 22.9186 14.8418 22.8061 14.8418H20.8623V14.0918H22.8061C22.9186 14.0918 23.0061 14.0043 23.0061 13.8918V13.1793C22.9998 13.073 22.9123 12.9793 22.8061 12.9793ZM30.0498 7.52301V25.3543C30.0436 28.1543 27.7498 30.423 24.9436 30.4168H7.11232C4.31232 30.4105 2.04357 28.1105 2.04982 25.3105V7.47926C2.05607 4.67926 4.35607 2.41051 7.15607 2.41676H24.9873C27.7873 2.42301 30.0561 4.71676 30.0498 7.52301ZM26.1998 15.1855C26.1998 10.623 21.6248 6.91051 16.0061 6.91051C10.3873 6.91051 5.81232 10.623 5.81232 15.1855C5.81232 19.273 9.43732 22.698 14.3373 23.348C15.5311 23.6043 15.3936 24.0418 15.1248 25.648C15.0811 25.9043 14.9186 26.6543 16.0061 26.198C17.0936 25.7418 21.8748 22.7418 24.0186 20.2793C25.4936 18.6543 26.1998 17.0105 26.1998 15.1855Z" fill="#222222"/>
</svg>
